<svg width="314" height="812" viewBox="0 0 314 812" fill="none" xmlns="http://www.w3.org/2000/svg">
<circle cx="182" cy="641" r="27" stroke="white" stroke-width="2"/>
<path d="M203.106 641.734C203.106 629.651 193.401 619.855 181.429 619.855" stroke="white" stroke-width="2"/>
<circle cx="250" cy="558" r="27" stroke="white" stroke-width="2"/>
<circle cx="170" cy="483" r="15" stroke="white" stroke-width="2"/>
<circle cx="162" cy="806" r="15" stroke="white" stroke-width="2"/>
<circle cx="282" cy="344" r="15" stroke="white" stroke-width="2"/>
<circle cx="51.0001" cy="280" r="15" stroke="white" stroke-width="2"/>
<circle cx="295.185" cy="691.186" r="48" transform="rotate(-107 295.185 691.186)" stroke="white" stroke-width="2"/>
<path d="M285.616 655.489C265.394 661.671 253.968 682.925 260.093 702.961" stroke="white" stroke-width="2"/>
<circle cx="238.043" cy="790.043" r="31.8693" transform="rotate(-107 238.043 790.043)" stroke="white" stroke-width="2"/>
<path d="M231.624 766.097C218.06 770.244 210.395 784.501 214.504 797.941" stroke="white" stroke-width="2"/>
<circle cx="80.1221" cy="380.122" r="63.1656" transform="rotate(-107 80.1221 380.122)" stroke="white" stroke-width="2"/>
<path d="M67.5921 333.377C41.1123 341.472 26.1489 369.304 34.1703 395.541" stroke="white" stroke-width="2"/>
<circle cx="217.267" cy="283.252" r="49.8958" transform="rotate(-107 217.267 283.252)" stroke="white" stroke-width="2"/>
<path d="M207.328 246.174C186.324 252.595 174.456 274.672 180.818 295.482" stroke="white" stroke-width="2"/>
<circle cx="252.553" cy="429.556" r="49.8958" transform="rotate(177.5 252.553 429.556)" stroke="white" stroke-width="2"/>
<path d="M214.167 429.895C215.125 451.837 233.526 468.855 255.267 467.906" stroke="white" stroke-width="2"/>
<circle cx="131.078" cy="270.947" r="18.5554" transform="rotate(-107 131.078 270.947)" stroke="white" stroke-width="2"/>
<path d="M127.259 256.701C119.189 259.168 114.629 267.65 117.074 275.646" stroke="white" stroke-width="2"/>
<circle cx="90.2019" cy="204.896" r="29.5578" transform="rotate(-107 90.2019 204.896)" stroke="white" stroke-width="2"/>
<path d="M84.2346 182.635C71.624 186.491 64.4979 199.745 68.318 212.24" stroke="white" stroke-width="2"/>
<circle cx="233.829" cy="57.8291" r="112.584" transform="rotate(-107 233.829 57.8291)" stroke="white" stroke-width="2"/>
<path d="M211.648 -24.9123C164.774 -10.5816 138.287 38.6855 152.486 85.1289" stroke="white" stroke-width="2"/>
</svg>
