<svg width="166" height="45" viewBox="0 0 166 45" fill="none" xmlns="http://www.w3.org/2000/svg">
<g clip-path="url(#clip0)">
<path d="M64.245 18.4535V21.2053H57.7253V9.46484H64.245V18.4535Z" fill="#E8E8EB"/>
<path d="M74.6861 23.0305V44.3512H68.1665V9.45117H74.6861V23.0305Z" fill="#E8E8EB"/>
<path d="M120.35 18.3369V32.9322H113.83V9.45117H120.35V18.3369Z" fill="#E8E8EB"/>
<path d="M33.1127 12.6917C30.8109 10.6214 27.7247 9.45117 24.4455 9.45117C21.1922 9.45117 18.1059 10.5956 15.8041 12.666C13.3866 14.8521 12.075 17.8611 12.075 21.1659C12.075 24.4965 13.4123 27.5313 15.8041 29.6916C18.1059 31.7877 21.1922 32.9322 24.4455 32.9322C27.7247 32.9322 30.798 31.7877 33.1127 29.6916C35.5174 27.5056 36.8419 24.4708 36.8419 21.1659C36.8676 17.8868 35.5302 14.8778 33.1127 12.6917ZM30.3222 21.1788C30.3222 22.7991 29.6921 24.3293 28.5862 25.4481C27.4803 26.554 26.0015 27.1584 24.4713 27.1584C22.9282 27.1584 21.4622 26.554 20.3563 25.4738C19.2247 24.355 18.5946 22.8376 18.5946 21.1788C18.5946 17.8997 21.2179 15.2378 24.4584 15.2378C27.6861 15.2378 30.3222 17.9126 30.3222 21.1788Z" fill="#E8E8EB"/>
<path d="M60.5028 12.6917C58.201 10.6214 55.1148 9.45117 51.8357 9.45117C48.5823 9.45117 45.4961 10.5956 43.1943 12.666C40.7767 14.8521 39.4651 17.8611 39.4651 21.1659C39.4651 24.4965 40.8024 27.5313 43.1943 29.6916C45.4961 31.7877 48.5823 32.9322 51.8357 32.9322C55.1148 32.9322 58.1882 31.7877 60.5028 29.6916C62.9075 27.5056 64.232 24.4708 64.232 21.1659C64.2577 17.8868 62.9204 14.8778 60.5028 12.6917ZM57.7252 21.1788C57.7252 22.7991 57.0951 24.3293 55.9892 25.4481C54.8833 26.554 53.4045 27.1584 51.8743 27.1584C50.344 27.1584 48.8652 26.554 47.7593 25.4738C46.6277 24.355 45.9976 22.8376 45.9976 21.1788C45.9976 17.8997 48.6209 15.2378 51.8614 15.2378C55.0762 15.2378 57.7252 17.9126 57.7252 21.1788Z" fill="#E8E8EB"/>
<path d="M89.2042 12.6917C86.9024 10.6214 83.8162 9.45117 80.5371 9.45117C77.2837 9.45117 74.1975 10.5956 71.8957 12.666C69.4781 14.8521 68.1665 17.8611 68.1665 21.1659C68.1665 24.4965 69.5039 27.5313 71.8957 29.6916C74.1975 31.7877 77.2837 32.9322 80.5371 32.9322C83.8162 32.9322 86.8896 31.7877 89.2042 29.6916C91.6089 27.5056 92.9334 24.4708 92.9334 21.1659C92.9591 17.8868 91.6218 14.8778 89.2042 12.6917ZM86.4266 21.1788C86.4266 22.7991 85.7965 24.3293 84.6906 25.4481C83.5847 26.554 82.1059 27.1584 80.5757 27.1584C79.0454 27.1584 77.5666 26.554 76.4607 25.4738C75.3291 24.355 74.699 22.8376 74.699 21.1788C74.699 17.8997 77.3223 15.2378 80.5628 15.2378C83.7776 15.2378 86.4266 17.9126 86.4266 21.1788Z" fill="#E8E8EB"/>
<path d="M116.607 12.6917C114.306 10.6214 111.219 9.45117 107.94 9.45117C104.687 9.45117 101.601 10.5956 99.2989 12.666C96.8813 14.8521 95.5697 17.8611 95.5697 21.1659C95.5697 24.4965 96.9071 27.5313 99.2989 29.6916C101.601 31.7877 104.687 32.9322 107.94 32.9322C111.219 32.9322 114.293 31.7877 116.607 29.6916C119.012 27.5056 120.337 24.4708 120.337 21.1659C120.362 17.8868 119.025 14.8778 116.607 12.6917ZM113.83 21.1788C113.83 22.7991 113.2 24.3293 112.094 25.4481C110.988 26.554 109.509 27.1584 107.979 27.1584C106.449 27.1584 104.97 26.554 103.864 25.4738C102.732 24.355 102.102 22.8376 102.102 21.1788C102.102 17.8997 104.725 15.2378 107.966 15.2378C111.181 15.2378 113.83 17.9126 113.83 21.1788Z" fill="#E8E8EB"/>
<path d="M139.175 20.1118C138.095 19.6618 136.694 19.2374 135.035 18.8259C133.453 18.4401 132.296 18.0415 131.55 17.6686C130.946 17.3342 130.65 16.897 130.65 16.3184C130.65 15.7783 130.856 15.3925 131.254 15.1225C131.756 14.7881 132.476 14.6209 133.427 14.6209C134.418 14.6209 135.241 14.8653 135.806 15.3153L135.832 15.3411C136.424 15.7911 136.732 16.3827 136.809 17.1542L136.861 17.5786H143.303L143.252 17.0771C143.072 14.6595 142.12 12.7178 140.423 11.2904C138.725 9.85016 136.449 9.11719 133.62 9.11719C131.717 9.11719 130.045 9.43867 128.618 10.0688C127.216 10.6989 126.085 11.5862 125.3 12.6921C124.529 13.798 124.143 15.0582 124.143 16.4212C124.143 18.0415 124.567 19.4046 125.403 20.3947C126.239 21.3463 127.229 22.0664 128.387 22.5422C129.492 22.9923 130.92 23.4167 132.643 23.8282C134.25 24.2525 135.421 24.664 136.128 25.0241L136.154 25.0498C136.745 25.3198 137.041 25.7056 137.041 26.2714C137.041 26.7858 136.796 27.223 136.295 27.5831C135.781 27.9688 135.009 28.1489 134.006 28.1489C132.99 28.1489 132.129 27.9045 131.447 27.3773C130.791 26.8758 130.457 26.2714 130.367 25.4999L130.315 25.0884H123.603L123.629 25.5899C123.719 27.0816 124.22 28.4318 125.12 29.6534C126.02 30.8493 127.294 31.8395 128.849 32.5467C130.393 33.2283 132.154 33.5883 134.045 33.5883C135.922 33.5883 137.568 33.2926 138.97 32.6882C140.423 32.0581 141.542 31.1708 142.287 30.0649C143.085 28.959 143.483 27.6731 143.483 26.2457C143.458 24.6383 143.008 23.3138 142.133 22.3365C141.31 21.3335 140.307 20.5876 139.175 20.1118Z" fill="#E8E8EB"/>
<path d="M161.679 20.1118C160.599 19.6618 159.197 19.2374 157.538 18.8259C155.957 18.4401 154.799 18.0415 154.054 17.6686C153.449 17.3342 153.153 16.897 153.153 16.3184C153.153 15.7783 153.359 15.3925 153.758 15.1225C154.259 14.7881 154.979 14.6209 155.931 14.6209C156.921 14.6209 157.744 14.8653 158.31 15.3153L158.336 15.3411C158.927 15.7911 159.236 16.3827 159.313 17.1542L159.364 17.5786H165.807L165.755 17.0771C165.575 14.6595 164.624 12.7178 162.926 11.2904C161.229 9.85016 158.953 9.11719 156.124 9.11719C154.221 9.11719 152.549 9.43867 151.122 10.0688C149.72 10.6989 148.588 11.5862 147.804 12.6921C147.032 13.798 146.647 15.0582 146.647 16.4212C146.647 18.0415 147.071 19.4046 147.907 20.3947C148.743 21.3463 149.733 22.0664 150.89 22.5422C151.996 22.9923 153.423 23.4167 155.147 23.8282C156.754 24.2525 157.924 24.664 158.631 25.0241L158.657 25.0498C159.249 25.3198 159.544 25.7056 159.544 26.2714C159.544 26.7858 159.3 27.223 158.799 27.5831C158.284 27.9688 157.513 28.1489 156.51 28.1489C155.494 28.1489 154.632 27.9045 153.951 27.3773C153.295 26.8758 152.961 26.2714 152.871 25.4999L152.819 25.0884H146.107L146.132 25.5899C146.222 27.0816 146.724 28.4318 147.624 29.6534C148.524 30.8493 149.797 31.8395 151.353 32.5467C152.896 33.2283 154.658 33.5883 156.548 33.5883C158.426 33.5883 160.072 33.2926 161.473 32.6882C162.926 32.0581 164.045 31.1708 164.791 30.0649C165.588 28.959 165.987 27.6731 165.987 26.2457C165.961 24.6383 165.511 23.3138 164.637 22.3365C163.814 21.3335 162.811 20.5876 161.679 20.1118Z" fill="#E8E8EB"/>
<path d="M11.8819 33.254C8.43566 30.1549 6.51964 25.7956 6.51964 21.0249V0H0V21.2049C0.0128592 27.7631 2.649 33.7298 7.36835 37.9862C11.8948 42.0883 17.9001 44.3387 24.2783 44.3773V37.8962C19.6103 37.8962 15.1868 36.2502 11.8819 33.254Z" fill="#E8E8EB"/>
<path d="M57.0434 35.3887C56.7605 35.9288 56.4004 36.4303 55.976 36.8675C54.8701 37.9734 53.3913 38.5778 51.8611 38.5778C50.3308 38.5778 48.852 37.9734 47.7461 36.8932C47.2961 36.4431 46.936 35.9416 46.6402 35.3887H39.7863C40.3135 37.6005 41.4837 39.5808 43.194 41.1239C45.4958 43.2199 48.582 44.3644 51.8354 44.3644C55.1145 44.3644 58.1878 43.2199 60.5025 41.1239C62.1999 39.5808 63.3701 37.6005 63.9102 35.3887H57.0434Z" fill="#E8E8EB"/>
</g>
<defs>
<clipPath id="clip0">
<rect width="166" height="44.3773" fill="white"/>
</clipPath>
</defs>
</svg>
