<svg width="24" height="25" viewBox="0 0 24 25" fill="none" xmlns="http://www.w3.org/2000/svg">
<path d="M17.4 21.1553V22.1553L18.1809 21.78L17.4 21.1553ZM19 19.1553L19.7809 19.78L20 19.1553H19ZM6.6 21.1553L5.81913 21.78L6.6 22.1553V21.1553ZM5 19.1553H4L4.21913 19.78L5 19.1553ZM3 6.65527H2V8.65527H3V6.65527ZM21 8.65527H22V6.65527H21V8.65527ZM7.5 3.15527V2.15527L6.51942 3.35139L7.5 3.15527ZM16.5 3.15527L17.4806 3.35139L16.5 2.15527V3.15527ZM20 11.1553V7.65527H18V11.1553H20ZM20 19.1553V11.1553H18V19.1553H20ZM18.1809 21.78L19.7809 19.78L18.2191 18.5306L16.6191 20.5306L18.1809 21.78ZM6.6 22.1553H17.4V20.1553H6.6V22.1553ZM4 7.65527V19.1553H6V7.65527H4ZM7.38087 20.5306L5.78087 18.5306L4.21913 19.78L5.81913 21.78L7.38087 20.5306ZM5 6.65527H3V8.65527H5V6.65527ZM21 6.65527H19V8.65527H21V6.65527ZM11.9881 6.65527H8.4V8.65527H11.9881V6.65527ZM8.4 6.65527H5V8.65527H8.4V6.65527ZM9.38058 7.45916L8.48058 2.95916L6.51942 3.35139L7.41942 7.85139L9.38058 7.45916ZM7.5 4.15527H16.5V2.15527H7.5V4.15527ZM19 6.65527H15.6V8.65527H19V6.65527ZM15.6 6.65527H11.9881V8.65527H15.6V6.65527ZM15.5194 2.95916L14.6194 7.45916L16.5806 7.85139L17.4806 3.35139L15.5194 2.95916Z" fill="white"/>
</svg>
