<svg width="51" height="56" viewBox="0 0 51 56" fill="none" xmlns="http://www.w3.org/2000/svg">
    <path
        d="M8.25913 54.2162C18.6631 51.6802 34.3774 47.8221 35.1144 25.2802C35.2011 22.7009 34.2474 20.2516 32.4267 18.3876C30.5626 16.4585 27.94 15.3531 25.1872 15.3531C22.4779 15.3531 19.8552 16.5018 17.9912 18.4959C16.1922 20.4033 15.6936 22.9393 15.3468 24.8033C13.9163 32.3462 9.0611 36.0526 0.477832 36.1393C0.521131 40.691 0.521131 39.4339 0.521131 40.691C0.47782 36.1393 0.477832 36.1393 0.521131 40.691C11.1418 40.561 18.0128 35.229 19.8119 25.6486C20.137 23.893 20.4621 22.4841 21.2858 21.6171C22.3045 20.5334 23.6917 19.9265 25.2306 19.9265C26.6828 19.9265 28.1134 20.5334 29.1321 21.5738C30.0858 22.5491 30.5843 23.828 30.541 25.1501C29.9124 44.2457 17.2976 47.3236 7.15371 49.8162C5.22464 50.293 3.40395 50.7265 1.82168 51.2684C2.53695 55.6901 2.53695 55.6901 1.82168 51.2684C2.53695 55.6901 1.82168 51.2684 2.53695 55.6901C2.77537 55.6901 4.57237 55.2511 4.81079 55.1644C6.21966 54.7093 6.41676 54.6714 8.25913 54.2162Z"
        fill="#A3A3AD"/>
    <path
        d="M49.8252 43.8112C45.7936 42.5974 42.1739 40.9718 42.2173 34.556C42.239 33.1255 42.304 32.1935 42.3907 31.1747C42.5207 29.7875 42.6508 28.2053 42.6074 25.2358C42.4774 15.6338 34.6527 7.80917 25.1808 7.80917C16.5325 7.80917 9.76992 13.7048 7.94922 22.8082C6.86548 28.227 2.87725 28.1619 1.42507 28.1619C0.96989 32.692 0.969823 32.692 1.42507 28.1619C1.29502 29.4191 1.42507 28.1619 0.9699 32.692C8.77287 33.4723 11.5039 28.2486 12.4143 23.7186C13.8231 16.7176 18.7 12.3826 25.1808 12.3826C32.1818 12.3826 37.9473 18.1915 38.0557 25.3008C38.099 28.0319 37.969 29.4191 37.8606 30.7629C37.7739 31.8033 37.6655 32.8871 37.6655 34.491C37.5788 44.8516 45.2301 47.1708 48.503 48.1462C48.7198 48.2112 48.9365 48.2546 49.1533 48.2546C49.8252 43.8112 49.8252 43.8112 49.1533 48.2546C49.8252 43.8112 49.1533 48.2546 49.8252 43.8112Z"
        fill="#A3A3AD"/>
    <path
        d="M50.6311 36.2456C50.436 36.1156 49.5257 35.3786 49.7424 33.3629C50.0675 30.4367 50.2193 25.6249 50.2193 25.4298V25.3431C50.2409 11.5362 39.0133 0.308594 25.2064 0.308594C14.9975 0.308594 5.61228 6.72437 1.88419 16.2613C1.45069 17.3884 1.10389 18.7323 0.822117 19.9027C0.670392 20.553 0.475318 21.2682 0.366943 21.55C4.61521 23.1973 3.44475 22.7421 4.61519 23.1973C0.366943 21.55 0.366943 21.55 4.61519 23.1973C4.83194 22.6554 5.00538 21.9185 5.2438 21.0081C5.5039 19.9677 5.80735 18.7756 6.13247 17.9086C9.18864 10.1057 16.8399 4.86033 25.2064 4.86033C36.4774 4.86033 45.6675 14.0288 45.6892 25.2998C45.6675 25.755 45.5158 30.22 45.234 32.8643C44.6922 37.8712 47.9217 40.2988 49.4823 40.624C49.634 40.6673 49.8074 40.6673 49.9592 40.6673C50.6311 36.2456 49.9592 40.6673 50.6311 36.2456C49.9592 40.6673 49.9592 40.6673 50.6311 36.2456Z"
        fill="#A3A3AD"/>
    <path
        d="M1.72866 48.209C2.18383 48.1222 2.63901 48.0139 3.13753 47.9272C11.9809 46.1498 26.7849 43.1587 27.4785 25.2552C22.9267 25.0818 22.9267 25.0818 27.4785 25.2552C22.9267 25.0818 27.4785 25.2552 22.9267 25.0818C22.3632 39.4306 10.7238 41.7715 2.22718 43.4838C1.72866 43.5922 1.25181 43.6789 0.796637 43.7656C1.27349 48.274 0.796637 43.7656 1.27349 48.274C0.796637 43.7656 0.796637 43.7656 1.27349 48.274C1.40354 48.2523 1.57693 48.2306 1.72866 48.209Z"
        fill="#A3A3AD"/>
    <path
        d="M48.3736 51.1794C46.0977 50.6808 44.0386 49.9005 41.6544 48.8818C39.812 48.1015 37.7529 46.5626 36.3007 44.872C32.4484 47.9173 36.3007 44.872 32.4484 47.9173C36.3011 44.8718 36.3006 44.872 32.4484 47.9173C34.3558 50.1281 37.3844 52.003 39.8554 53.0651C42.1312 54.0405 44.6238 55.0158 47.3765 55.6227C47.5499 55.6661 47.7017 55.6661 47.8751 55.6661C48.3736 51.1794 48.3736 51.1794 47.8751 55.6661C48.3736 51.1794 47.8751 55.6661 48.3736 51.1794Z"
        fill="#A3A3AD"/>
    <path
        d="M0.521131 40.691C0.521131 39.4339 0.521131 40.691 0.477832 36.1393C9.0611 36.0526 13.9163 32.3462 15.3468 24.8033C15.6936 22.9393 16.1922 20.4033 17.9912 18.4959C19.8552 16.5018 22.4779 15.3531 25.1872 15.3531C27.94 15.3531 30.5626 16.4585 32.4267 18.3876C34.2474 20.2516 35.2011 22.7009 35.1144 25.2802C34.3774 47.8221 18.6631 51.6802 8.25913 54.2162C6.41676 54.6714 6.21966 54.7093 4.81079 55.1644C4.57237 55.2511 2.77537 55.6901 2.53695 55.6901C1.82168 51.2684 2.53695 55.6901 1.82168 51.2684M0.521131 40.691C0.477832 36.1393 0.47782 36.1393 0.521131 40.691ZM0.521131 40.691C11.1418 40.561 18.0128 35.229 19.8119 25.6486C20.137 23.893 20.4621 22.4841 21.2858 21.6171C22.3045 20.5334 23.6917 19.9265 25.2306 19.9265C26.6828 19.9265 28.1134 20.5334 29.1321 21.5738C30.0858 22.5491 30.5843 23.828 30.541 25.1501C29.9124 44.2457 17.2976 47.3236 7.15371 49.8162C5.22464 50.293 3.40395 50.7265 1.82168 51.2684M1.82168 51.2684C2.53695 55.6901 2.53695 55.6901 1.82168 51.2684ZM1.42507 28.1619C2.87725 28.1619 6.86548 28.227 7.94922 22.8082C9.76992 13.7048 16.5325 7.80917 25.1808 7.80917C34.6527 7.80917 42.4774 15.6338 42.6074 25.2358C42.6508 28.2053 42.5207 29.7875 42.3907 31.1747C42.304 32.1935 42.239 33.1255 42.2173 34.556C42.1739 40.9718 45.7936 42.5974 49.8252 43.8112C49.1533 48.2546 49.8252 43.8112 49.1533 48.2546M1.42507 28.1619C0.969823 32.692 0.96989 32.692 1.42507 28.1619ZM1.42507 28.1619C1.29502 29.4191 1.42507 28.1619 0.9699 32.692C8.77287 33.4723 11.5039 28.2486 12.4143 23.7186C13.8231 16.7176 18.7 12.3826 25.1808 12.3826C32.1818 12.3826 37.9473 18.1915 38.0557 25.3008C38.099 28.0319 37.969 29.4191 37.8606 30.7629C37.7739 31.8033 37.6655 32.8871 37.6655 34.491C37.5788 44.8516 45.2301 47.1708 48.503 48.1462C48.7198 48.2112 48.9365 48.2546 49.1533 48.2546M49.1533 48.2546C49.8252 43.8112 49.8252 43.8112 49.1533 48.2546ZM50.6311 36.2456C50.436 36.1156 49.5257 35.3786 49.7424 33.3629C50.0675 30.4367 50.2193 25.6249 50.2193 25.4298V25.3431C50.2409 11.5362 39.0133 0.308594 25.2064 0.308594C14.9975 0.308594 5.61228 6.72437 1.88419 16.2613C1.45069 17.3884 1.10389 18.7323 0.822117 19.9027C0.670392 20.553 0.475318 21.2682 0.366943 21.55C4.61521 23.1973 3.44475 22.7421 4.61519 23.1973M50.6311 36.2456C49.9592 40.6673 50.6311 36.2456 49.9592 40.6673C49.8074 40.6673 49.634 40.6673 49.4823 40.624C47.9217 40.2988 44.6922 37.8712 45.234 32.8643C45.5158 30.22 45.6675 25.755 45.6892 25.2998C45.6675 14.0288 36.4774 4.86033 25.2064 4.86033C16.8399 4.86033 9.18864 10.1057 6.13247 17.9086C5.80735 18.7756 5.5039 19.9677 5.2438 21.0081C5.00538 21.9185 4.83194 22.6554 4.61519 23.1973M50.6311 36.2456C49.9592 40.6673 49.9592 40.6673 50.6311 36.2456ZM4.61519 23.1973C0.366943 21.55 0.366943 21.55 4.61519 23.1973ZM27.4785 25.2552C26.7849 43.1587 11.9809 46.1498 3.13753 47.9272C2.63901 48.0139 2.18383 48.1222 1.72866 48.2089C1.57693 48.2306 1.40354 48.2523 1.27349 48.274M27.4785 25.2552C22.9267 25.0818 22.9267 25.0818 27.4785 25.2552ZM27.4785 25.2552C22.9267 25.0818 27.4785 25.2552 22.9267 25.0818C22.3632 39.4306 10.7238 41.7715 2.22718 43.4838C1.72866 43.5922 1.25181 43.6789 0.796637 43.7656C1.27349 48.274 0.796637 43.7656 1.27349 48.274M1.27349 48.274C0.796637 43.7656 0.796637 43.7656 1.27349 48.274ZM32.4484 47.9173C36.3007 44.872 32.4484 47.9173 36.3007 44.872C37.7529 46.5626 39.812 48.1015 41.6544 48.8818C44.0386 49.9005 46.0977 50.6808 48.3736 51.1794C47.8751 55.6661 48.3736 51.1794 47.8751 55.6661M32.4484 47.9173C36.3006 44.872 36.3011 44.8718 32.4484 47.9173ZM32.4484 47.9173C34.3558 50.1281 37.3844 52.003 39.8553 53.0651C42.1312 54.0404 44.6238 55.0158 47.3765 55.6227C47.5499 55.6661 47.7017 55.6661 47.8751 55.6661M47.8751 55.6661C48.3736 51.1794 48.3736 51.1794 47.8751 55.6661Z"
        stroke="#A3A3AD" stroke-width="0.118229"/>
</svg>
