<svg fill="none" height="429" viewBox="0 0 291 429" width="291" xmlns="http://www.w3.org/2000/svg"><g stroke="#fff" stroke-width="2"><circle cx="262.839" cy="100.415" r="21.2879" transform="matrix(-.2923717 -.95630476 .95630476 -.2923717 243.658344 381.12769)"/><path d="m257.776 85.5009c-8.072 2.4678-12.633 10.9517-10.188 18.9491"/><circle cx="201.157" cy="42.0898" r="32.7074" transform="matrix(-.2923717 -.95630476 .95630476 -.2923717 219.718939 246.763062)"/><path d="m194.066 18.4806c-13.105 4.0067-20.511 17.781-16.541 30.7659"/><circle cx="34.2008" cy="394.799" r="26.068" transform="matrix(-.2923717 -.95630476 .95630476 -.2923717 -333.348015 542.933444)"/><path d="m27.6489 377.437c-9.1645 2.802-14.3433 12.434-11.5671 21.515"/><path d="m113.913 220.895c-2.28-4.024-6.097-7.145-10.743-8.699-4.6088-1.542-9.5236-1.384-13.766.458-4.4612 1.951-7.7457 5.592-9.3123 10.274-1.5788 4.719-1.1227 9.652 1.2418 13.847 2.2674 4.06 6.0971 7.144 10.7062 8.687 4.6456 1.554 9.5423 1.39 13.8153-.483 4.443-1.957 7.758-5.628 9.324-10.31 1.591-4.634 1.123-9.531-1.266-13.774z" fill="#fc264c"/><path d="m101.053 218.548c-1.527-.511-3.1085-.72-4.6511-.629m-3.8609.912c-2.7585 1.207-4.7895 3.458-5.7581 6.353-.9762 2.918-.6942 5.968.7678 8.562"/><path d="m156.845 294.626c-2.785-5.423-7.661-9.639-13.629-11.871-6.016-2.249-12.438-2.257-18.122 0"/><path d="m35.0421 271.881c-17.005-55.621 14.7168-114.623 70.8529-131.786m-1.604-30.993c-71.843 21.965-112.27759 98.012-90.3129 169.855 10.5379 34.468 33.5241 61.706 62.5221 78.293l13.0298 6.267c3.6249 1.744 7.6604-1.47 6.7721-5.393-1.0743-4.745 4.7719-7.901 8.1489-4.399l3.163 3.281c4.496 4.662 12.034-.646 9.16-6.45-2.527-5.105 3.21-10.33 8.057-7.339l6.669 4.115 8.322 4.989c7.45 4.465 16.434-2.752 13.678-10.989-1.965-4.264-3.445-7.38-4.528-9.665-3.929-8.288 8.915-10.967 12.556-2.549.489 1.13 1.248 2.056 2.109 2.81 3.312 2.899 8.869 3.299 11.457-.262.829-1.141 1.401-2.504 1.641-3.946.592-3.548-.953-7.113-3.946-9.108l-4.811-3.208c-2.356-1.57-3.771-4.232-3.771-7.063 0-4.649 3.769-8.451 8.418-8.451 3.125 0 5.993 1.732 7.449 4.497 1.537 2.922 5.499 5.003 8.8 5.003 2.404 0 4.657-1.168 6.043-3.131 2.162-3.062 1.692-7.257-1.094-9.765l-7.268-6.54c-1.693-1.525-2.197-3.974-1.242-6.043.251-.543.587-1.029.99-1.443 1.877-1.933 4.878-.664 6.984 1.015l4.877 3.886c1.096.873 2.629.947 3.804.182l.73-.476c4.007-2.61 3.427-8.649-1.005-10.447-2.123-.862-4.326-1.513-6.577-1.943l-1.455-.277c-3.137-.6-6.453-1.597-8.348-4.169-2.864-3.887-.265-10.477 2.699-14.288.107-.138.236-.287.383-.446 4.397-4.749 11.301-7.582 17.146-4.8 3.597 1.712 6.457 4.641 6.654 8.191.4 6.627 9.606 7.926 11.824 1.668l.369-1.039c1.867-5.269 8.092-7.505 12.885-4.629l.727.436c5.014 3.008 11.713 2.211 12.498-3.583.504-3.723-1.349-7.417-4.291-10.359l-3.708-3.926c-2.787-2.95-3.104-7.457-.758-10.769l.671-.948c2.153-3.039 6.261-3.948 9.495-2.1.857.49 1.606 1.151 2.198 1.941l1.016 1.354c2.499 3.333 6.739 4.935 10.829 4.143 5.042-.976 8.757-5.404 8.757-10.54 0-3.539-1.746-6.85-4.667-8.848-.343-.234-.807-.475-1.345-.713-4.163-1.848-8.825-1.662-13.341-1.075-6.324.822-14.232.405-14.597-8.968-.225-5.761 6.038-9.034 11.638-7.661l3.434.842c7.166 1.757 13.31-5.34 10.545-12.182l-1.528-3.778c-.895-2.215-1.989-4.345-3.269-6.364-7.157-11.291-14.974-22.273-25.028-31.085-35.642-31.242-83.908-46.3924-132.258-31.611z"/></g></svg>