<svg width="32" height="33" viewBox="0 0 32 33" fill="none" xmlns="http://www.w3.org/2000/svg">
<g clip-path="url(#clip0)">
<path d="M27 14.502V27.498H18.5124V21.5067H13.5139V27.498H5.00391V14.4902L16 5.7793L27 14.502Z" fill="#191933"/>
<path d="M27 27.498V27.998H27.5V27.498H27ZM27 14.502H27.5V14.2603L27.3107 14.1102L27 14.502ZM18.5124 27.498H18.0124V27.998H18.5124V27.498ZM18.5124 21.5067H19.0124V21.0067H18.5124V21.5067ZM13.5139 27.498V27.998H14.0139V27.498H13.5139ZM13.5139 21.5067V21.0067H13.0139V21.5067H13.5139ZM5.00391 27.498H4.50391V27.998H5.00391V27.498ZM5.00391 14.4902L4.69343 14.0983L4.50391 14.2484V14.4902H5.00391ZM16 5.7793L16.3107 5.38752L16.0002 5.1413L15.6895 5.38737L16 5.7793ZM27.5 27.498V14.502H26.5V27.498H27.5ZM18.5124 27.998H27V26.998H18.5124V27.998ZM18.0124 21.5067V27.498H19.0124V21.5067H18.0124ZM14.0139 27.498V21.5067H13.0139V27.498H14.0139ZM5.00391 27.998H13.5139V26.998H5.00391V27.998ZM4.50391 14.4902V27.498H5.50391V14.4902H4.50391ZM15.6893 6.17107L26.6893 14.8937L27.3107 14.1102L16.3107 5.38752L15.6893 6.17107ZM5.31438 14.8822L16.3105 6.17122L15.6895 5.38737L4.69343 14.0983L5.31438 14.8822ZM18.5124 21.0067H13.5139V22.0067H18.5124V21.0067Z" fill="#191933"/>
</g>
<defs>
<clipPath id="clip0">
<rect width="32" height="32" fill="white" transform="translate(0 0.501953)"/>
</clipPath>
</defs>
</svg>
