<svg width="24" height="24" viewBox="0 0 24 24" fill="none" xmlns="http://www.w3.org/2000/svg">
<path d="M11.1 7.5H12.9V9.3H11.1V7.5Z" fill="#191933"/>
<path d="M11.1 11.1H12.9V16.5H11.1V11.1Z" fill="#191933"/>
<path fill-rule="evenodd" clip-rule="evenodd" d="M3 12C3 7.032 7.03198 3 12 3C16.968 3 21 7.032 21 12C21 16.968 16.968 21 12 21C7.03198 21 3 16.968 3 12ZM4.8 12C4.8 15.969 8.03097 19.2 12 19.2C15.969 19.2 19.2 15.969 19.2 12C19.2 8.031 15.969 4.8 12 4.8C8.03097 4.8 4.8 8.031 4.8 12Z" fill="#191933"/>
</svg>
