<svg width="51" height="56" viewBox="0 0 51 56" fill="none" xmlns="http://www.w3.org/2000/svg">
<path fill-rule="evenodd" clip-rule="evenodd" d="M41.7803 6.91604C41.5563 6.91604 41.3323 6.86004 41.1362 6.74804C35.7602 3.97602 31.1122 2.80002 25.5402 2.80002C19.9961 2.80002 14.7321 4.11602 9.94408 6.74804C9.27207 7.11204 8.43207 6.86004 8.04007 6.18803C7.67606 5.51603 7.92807 4.64803 8.60007 4.28402C13.8081 1.45601 19.5201 0 25.5402 0C31.5042 0 36.7122 1.31601 42.4243 4.25602C43.1243 4.62003 43.3763 5.46003 43.0123 6.13203C42.7603 6.63604 42.2843 6.91604 41.7803 6.91604ZM1.71391 21.619C1.4339 21.619 1.1539 21.535 0.901902 21.367C0.257898 20.919 0.117897 20.051 0.5659 19.407C3.33792 15.487 6.86594 12.4069 11.066 10.2509C19.858 5.71491 31.1141 5.68691 39.9341 10.2229C44.1341 12.3789 47.6622 15.431 50.4342 19.323C50.8822 19.939 50.7422 20.835 50.0982 21.283C49.4542 21.731 48.5862 21.591 48.1382 20.947C45.6182 17.419 42.4261 14.647 38.6461 12.7149C30.6101 8.59892 20.334 8.59892 12.326 12.7429C8.51795 14.703 5.32593 17.503 2.80591 21.031C2.58191 21.423 2.16191 21.619 1.71391 21.619ZM18.2329 54.9899C18.4849 55.2699 18.8489 55.4099 19.2129 55.4099C19.5769 55.4099 19.9409 55.2699 20.2489 54.9899C20.7809 54.4299 20.7809 53.5619 20.2489 53.0019C18.0929 50.8179 16.8609 49.4459 15.0689 46.2258C13.3609 43.2018 12.4649 39.4778 12.4649 35.4458C12.4649 28.6697 18.3169 23.1537 25.513 23.1537C32.709 23.1537 38.561 28.6697 38.561 35.4458C38.561 36.2298 39.177 36.8458 39.961 36.8458C40.745 36.8458 41.361 36.2298 41.361 35.4458C41.361 27.1297 34.249 20.3537 25.513 20.3537C16.7769 20.3537 9.66487 27.1297 9.66487 35.4458C9.66487 39.9538 10.6729 44.1538 12.6049 47.5979C14.4809 50.9859 15.7969 52.5539 18.2329 54.9899ZM39.2907 50.2305C35.9587 50.2305 33.0186 49.3905 30.6106 47.7385C26.4386 44.9105 23.9466 40.3185 23.9466 35.4464C23.9466 34.6624 24.5626 34.0464 25.3466 34.0464C26.1306 34.0464 26.7466 34.6624 26.7466 35.4464C26.7466 39.3945 28.7626 43.1185 32.1786 45.4145C34.1666 46.7585 36.4907 47.4025 39.2907 47.4025C39.9627 47.4025 41.0827 47.3185 42.2027 47.1225C42.9587 46.9825 43.6867 47.4865 43.8267 48.2705C43.9667 49.0265 43.4627 49.7545 42.6787 49.8945C41.0827 50.2025 39.6827 50.2305 39.2907 50.2305ZM33.2989 55.9441C33.4109 55.9721 33.5509 56.0001 33.6629 56.0001C34.2509 56.0001 34.8389 55.5801 34.9789 54.9361C35.1749 54.2081 34.7549 53.4241 33.9989 53.2281C30.0508 52.1361 27.5028 50.68 24.8428 48.048C21.4548 44.688 19.6068 40.208 19.6068 35.42C19.6068 32.424 22.2108 29.9879 25.4308 29.9879C28.6508 29.9879 31.2549 32.424 31.2549 35.42C31.2549 39.956 35.1189 43.652 39.8789 43.652C44.6389 43.652 48.5029 39.956 48.5029 35.42C48.5029 23.3239 38.1429 13.4959 25.4028 13.4959C16.3588 13.4959 8.09872 18.5639 4.3747 26.3759C3.11469 29.0359 2.47069 32.088 2.47069 35.448C2.47069 39.228 3.14269 42.868 4.5147 46.536C4.7667 47.236 5.57871 47.628 6.30671 47.348C7.03472 47.096 7.39872 46.284 7.11872 45.556C5.43871 41.076 5.24271 37.632 5.24271 35.448C5.24271 32.536 5.80271 29.8759 6.89472 27.6079C10.1707 20.7479 17.4508 16.3239 25.4028 16.3239C36.6029 16.3239 45.7029 24.8919 45.7029 35.448C45.7029 38.444 43.0989 40.88 39.8789 40.88C36.6589 40.88 34.0549 38.444 34.0549 35.448C34.0549 30.9119 30.1908 27.2159 25.4308 27.2159C20.6708 27.2159 16.8068 30.9119 16.8068 35.448C16.8068 40.992 18.9628 46.172 22.8828 50.064C25.9348 53.0601 28.8468 54.7121 33.2989 55.9441Z" fill="#A3A3AD"/>
</svg>
