<svg fill="none" height="464" viewBox="0 0 326 464" width="326" xmlns="http://www.w3.org/2000/svg"><g stroke="#fff" stroke-width="2"><circle cx="288.083" cy="97.9184" r="29.3662" transform="matrix(-.2923717 -.95630476 .95630476 -.2923717 278.670486 402.042113)"/><path d="m282.153 75.7986c-12.532 3.8313-19.613 17.0027-15.817 29.4194"/><circle cx="200.909" cy="49.9084" r="38.969" transform="matrix(-.2923717 -.95630476 .95630476 -.2923717 211.921467 256.630436)"/><path d="m193.103 20.7926c-16.494 5.0428-25.815 22.3795-20.818 38.7225"/><circle cx="33.7997" cy="429.799" r="26.068" transform="matrix(-.2923717 -.95630476 .95630476 -.2923717 -367.337052 587.78288)"/><path d="m28.5138 410.082c-11.1704 3.415-17.4827 15.156-14.0989 26.224"/><path d="m137.913 229.563c-2.28-4.024-6.097-7.145-10.743-8.699-4.609-1.542-9.524-1.384-13.766.458-4.461 1.951-7.746 5.592-9.312 10.274-1.579 4.719-1.123 9.652 1.241 13.847 2.268 4.06 6.098 7.145 10.707 8.687 4.645 1.554 9.542 1.39 13.815-.483 4.443-1.957 7.758-5.628 9.324-10.31 1.591-4.634 1.123-9.531-1.266-13.774z" fill="#fc264c"/><path d="m125.053 227.216c-1.527-.511-3.108-.72-4.651-.629m-3.861.912c-2.758 1.207-4.789 3.458-5.758 6.353-.976 2.918-.694 5.968.768 8.562"/><path d="m180.845 303.294c-2.785-5.423-7.661-9.639-13.629-11.871-6.016-2.249-12.438-2.257-18.122 0"/><path d="m59.0421 280.549c-17.005-55.621 14.7168-114.623 70.8529-131.785m-1.604-30.993c-71.843 21.964-112.2776 98.011-90.3129 169.854 11.8282 45.302 65.7149 63.894 54.1393 91.652-2.1796 5.227-1.8808 11.644 2.5805 15.132 7.0181 5.487 17.1491-.352 15.9181-9.175l-2.084-14.952c-1.169-8.379 9.672-12.718 14.606-5.846l2.588 3.603c5.013 6.981 15.908 1.339 13.101-6.783-2.289-6.624 4.997-12.46 10.961-8.78l5.712 3.524 10.496 5.498c6.8 3.562 14.242-3.537 11.004-10.498-3.027-6.319-4.465-9.136-4.797-11.299-1.13-7.348 8.849-11.486 12.443-4.977.95 1.722 1.972 3.575 3.442 4.884.086.077.173.153.259.228 3.138 2.726 8.039 3.999 10.585.714.917-1.183 1.548-2.628 1.803-4.161.592-3.549-.953-7.114-3.946-9.109l-4.811-3.208c-2.356-1.57-3.771-4.232-3.771-7.063 0-4.649 3.769-8.451 8.418-8.451 3.125 0 5.993 1.732 7.449 4.498 1.537 2.921 5.499 5.002 8.8 5.002.512 0 1.018-.053 1.51-.155 3.394-.708 3.778-4.919 2.521-8.151l-1.615-4.151c-1.015-2.609.119-5.563 2.619-6.824l6.452-3.252c4.981-2.512 5.07-9.593.153-12.229l-3.373-1.808c-2.925-1.568-4.951-4.41-5.479-7.686l-.289-1.794c-1.138-7.066 5.619-12.822 12.414-10.575 1.132.375 2.184.958 3.101 1.721l2.511 2.086c1.845 1.534 3.367 3.42 4.475 5.549l3.437 6.602c1.326 2.547 4.277 3.79 7.026 2.96.766-.231 1.472-.629 2.066-1.164l.789-.71c2.025-1.822 2.834-4.638 2.086-7.256l-.256-.894c-.346-1.21-.497-2.468-.447-3.726l.044-1.126c.204-5.207 7.365-6.456 9.32-1.625.041.1.082.2.128.298.43.909 2.942 5.639 7.835 3.595 8.957-3.743 5.225-12.765.305-17.685l-3.708-3.926c-2.285-2.933-2.071-5.558-1.03-7.887 1.483-3.316 4.99-5.19 8.531-5.995l.632-.144c3.161-.718 6.468-.395 9.43.921l5.098 2.266c4.261 1.894 9.175-.678 10.048-5.259.193-1.011.167-2.051-.074-3.052l-.51-2.114c-1.473-6.1-7.45-9.991-13.624-8.868-31 5-21.5-33.5.5-27.5l8.305 3.215c3.968 1.535 8.427-.449 9.942-4.425.823-2.161 1.112-4.49.842-6.787l-.197-1.675c-.758-6.439-6.745-10.936-13.139-9.87l-3.253.542c-9.712 1.61-18.836-5.825-24.17-14.099-20.577-31.924-88.379-53.664-135.539-37.63z"/></g></svg>