<svg width="24" height="24" viewBox="0 0 24 24" fill="none" xmlns="http://www.w3.org/2000/svg">
<path fill-rule="evenodd" clip-rule="evenodd" d="M21.0009 3V10H14.0009L16.9509 7.05C15.6809 5.79 13.9309 5 12.0009 5C8.14092 5 5.00092 8.14 5.00092 12C5.00092 15.86 8.14092 19 12.0009 19C15.8609 19 19.0009 15.86 19.0009 12H21.0009C21.0009 16.97 16.9709 21 12.0009 21C7.03092 21 3.00092 16.97 3.00092 12C3.00092 7.03 7.03092 3 12.0009 3C14.4909 3 16.7409 4.01 18.3609 5.64L21.0009 3ZM11.0009 12.9992V7.99922H12.5009V12.1492L16.0209 14.2392L15.2509 15.5192L11.0009 12.9992Z" fill="#191933"/>
</svg>
