<svg width="32" height="32" viewBox="0 0 32 32" fill="none" xmlns="http://www.w3.org/2000/svg">
<g clip-path="url(#clip0)">
<path d="M27 14H28V13.5167L27.6213 13.2165L27 14ZM27 26.9961V27.9961H28V26.9961H27ZM18.5124 26.9961H17.5124V27.9961H18.5124V26.9961ZM18.5124 21.0047H19.5124V20.0047H18.5124V21.0047ZM13.5139 21.0047V20.0047H12.5139V21.0047H13.5139ZM13.5139 26.9961V27.9961H14.5139V26.9961H13.5139ZM5.00391 26.9961H4.00391V27.9961H5.00391V26.9961ZM5.00391 13.9883L4.38295 13.2044L4.00391 13.5047V13.9883H5.00391ZM16 5.27734L16.6213 4.49379L16.0003 4.00134L15.379 4.4935L16 5.27734ZM28 26.9961V14H26V26.9961H28ZM18.5124 27.9961H27V25.9961H18.5124V27.9961ZM17.5124 21.0047V26.9961H19.5124V21.0047H17.5124ZM14.5139 26.9961V21.0047H12.5139V26.9961H14.5139ZM5.00391 27.9961H13.5139V25.9961H5.00391V27.9961ZM4.00391 13.9883V26.9961H6.00391V13.9883H4.00391ZM15.3787 6.06089L26.3787 14.7835L27.6213 13.2165L16.6213 4.49379L15.3787 6.06089ZM5.62486 14.7721L16.621 6.06119L15.379 4.4935L4.38295 13.2044L5.62486 14.7721ZM18.5124 20.0047H13.5139V22.0047H18.5124V20.0047Z" fill="#757585"/>
</g>
<defs>
<clipPath id="clip0">
<rect width="32" height="32" fill="white"/>
</clipPath>
</defs>
</svg>
