<svg width="33" height="32" viewBox="0 0 33 32" fill="none" xmlns="http://www.w3.org/2000/svg">
<path d="M26.5496 28H18.7979C18.521 28 18.2995 27.7906 18.2995 27.5289V22.7011H14.7558V27.5289C14.7558 27.7906 14.5344 28 14.2575 28H6.50573C6.22888 28 6.0074 27.7906 6.0074 27.5289V16.21H2.51909C2.29761 16.21 2.1315 16.1053 2.02076 15.8959C1.96539 15.6865 2.02076 15.4772 2.18687 15.3725L6.50573 11.9175V6.73515C6.50573 6.47341 6.72721 6.26402 7.00406 6.26402H10.1048C10.3816 6.26402 10.6031 6.47341 10.6031 6.73515V8.56731L16.1401 4.11778C16.3062 3.96074 16.5831 3.96074 16.8045 4.11778L30.8131 15.3725C30.9792 15.4772 31.0346 15.6865 30.9792 15.8959C30.9239 16.1053 30.7024 16.21 30.4809 16.21H26.9926V27.5289C27.048 27.7906 26.8265 28 26.5496 28ZM26.0513 27.0577V15.7389C26.0513 15.4772 26.2728 15.2678 26.5496 15.2678H29.152L16.5277 5.11238L10.4924 9.98068C10.3263 10.0854 10.1601 10.1377 9.93866 10.033C9.77255 9.98068 9.66181 9.77129 9.66181 9.61425V7.20627H7.50239V12.1269C7.50239 12.284 7.44702 12.3887 7.33628 12.4934L3.90334 15.2678H6.50573C6.78258 15.2678 7.00406 15.4772 7.00406 15.7389V27.0577H13.7592V22.23C13.7592 21.9682 13.9807 21.7588 14.2575 21.7588H18.7425C19.0193 21.7588 19.2408 21.9682 19.2408 22.23V27.0577H26.0513Z" fill="#E8E8EB" stroke="#E8E8EB" stroke-width="0.5"/>
</svg>
