<svg width="20" height="18" viewBox="0 0 20 18" fill="none" xmlns="http://www.w3.org/2000/svg">
<path fill-rule="evenodd" clip-rule="evenodd" d="M18.5 2.00049V4.28049C19.09 4.63049 19.5 5.26049 19.5 6.00049V12.0005C19.5 12.7405 19.09 13.3705 18.5 13.7205L18.5 16.0005C18.5 17.1005 17.6 18.0005 16.5 18.0005L2.5 18.0005C1.39 18.0005 0.5 17.1005 0.5 16.0005L0.5 2.00049C0.5 0.900488 1.39 0.000488281 2.5 0.000488281L16.5 0.000488281C17.6 0.000488281 18.5 0.900488 18.5 2.00049ZM10.5 12.0005H17.5V6.00049L10.5 6.00049L10.5 12.0005ZM2.5 16.0005L2.5 2.00049L16.5 2.00049V4.00049L10.5 4.00049C9.4 4.00049 8.5 4.90049 8.5 6.00049L8.5 12.0005C8.5 13.1005 9.4 14.0005 10.5 14.0005H16.5V16.0005L2.5 16.0005ZM12 9.00049C12 8.17206 12.6716 7.50049 13.5 7.50049C14.3284 7.50049 15 8.17206 15 9.00049C15 9.82892 14.3284 10.5005 13.5 10.5005C12.6716 10.5005 12 9.82892 12 9.00049Z" fill="#191933"/>
</svg>
