<svg width="24" height="24" viewBox="0 0 24 24" fill="none" xmlns="http://www.w3.org/2000/svg">
<path d="M5.71289 22H4.71289V23H5.71289V22ZM19.2843 22V23H20.2843V22H19.2843ZM19.2843 7.97619H20.2843V7.53629L19.96 7.23904L19.2843 7.97619ZM5.71289 3V2H4.71289V3H5.71289ZM13.8557 3L14.5315 2.26285L14.2447 2H13.8557V3ZM5.71289 23H19.2843V21H5.71289V23ZM12.939 2H5.71289V4H12.939V2ZM19.96 7.23904L14.5315 2.26285L13.18 3.73715L18.6086 8.71334L19.96 7.23904ZM13.8557 2H12.939V4H13.8557V2ZM20.2843 10.6905V7.97619H18.2843V10.6905H20.2843ZM20.2843 22V18.8333H18.2843V22H20.2843ZM20.2843 18.8333V10.6905H18.2843V18.8333H20.2843ZM4.71289 3V20.1905H6.71289V3H4.71289ZM4.71289 20.1905V22H6.71289V20.1905H4.71289Z" fill="#191933"/>
<path d="M9.33398 9.78564H15.2149" stroke="#191933" stroke-width="2" stroke-linecap="square" stroke-linejoin="round"/>
<path d="M9.33398 13.4048H15.2149" stroke="#191933" stroke-width="2" stroke-linecap="square" stroke-linejoin="round"/>
<path d="M9.33398 17.0239H12.953" stroke="#191933" stroke-width="2" stroke-linecap="square" stroke-linejoin="round"/>
</svg>
