<svg width="327" height="432" viewBox="0 0 327 432" fill="none" xmlns="http://www.w3.org/2000/svg">
<circle cx="163.5" cy="251.006" r="129.939" transform="rotate(-107 163.5 251.006)" stroke="#E8E8EB" stroke-width="2"/>
<path d="M126.76 155.623C72.7249 172.144 42.1899 228.939 58.5587 282.479" stroke="#E8E8EB" stroke-width="2"/>
<circle cx="271.33" cy="110.64" r="28.2301" transform="rotate(-107 271.33 110.64)" stroke="#E8E8EB" stroke-width="2"/>
<path d="M265.622 89.3455C253.559 93.0334 246.742 105.712 250.397 117.664" stroke="#E8E8EB" stroke-width="2"/>
<circle cx="202.995" cy="48.5955" r="37.4737" transform="rotate(-107 202.995 48.5955)" stroke="#E8E8EB" stroke-width="2"/>
<path d="M195.482 20.5699C179.604 25.4241 170.632 42.1122 175.442 57.8438" stroke="#E8E8EB" stroke-width="2"/>
<circle cx="57.7491" cy="399.299" r="25.0554" transform="rotate(-107 57.7491 399.299)" stroke="#E8E8EB" stroke-width="2"/>
<path d="M52.6609 380.322C41.9085 383.609 35.8323 394.911 39.0895 405.564" stroke="#E8E8EB" stroke-width="2"/>
<path d="M235.909 227.08C235.909 258.517 222.456 275.231 203.464 283.985C184.472 275.231 171.415 258.517 171.415 227.08C177.614 226.151 192.702 222.623 203.464 212.754C214.226 222.623 229.71 226.151 235.909 227.08Z" stroke="white" stroke-width="2" stroke-linecap="round" stroke-linejoin="round"/>
<path d="M196.236 233.178C196.236 277.997 176.946 301.826 149.714 314.307C122.482 301.826 103.76 277.997 103.76 233.178C112.648 231.854 134.283 226.824 149.714 212.754C165.146 226.824 187.348 231.854 196.236 233.178Z" fill="#191933" stroke="white" stroke-width="2" stroke-linecap="round" stroke-linejoin="round"/>
<path d="M133.6 267.139L147.456 280.133L169.697 251.256" stroke="white" stroke-width="2"/>
</svg>
