<svg fill="none" height="370" viewBox="0 0 320 370" width="320" xmlns="http://www.w3.org/2000/svg"><g stroke="#fff" stroke-width="2"><g fill="#101029"><path d="m318.454 315.197c-95.749 65.274-221.705 65.274-317.454 0v-3.753c0-34.966 28.3455-63.311 63.3114-63.311h190.8316c34.966 0 63.311 28.346 63.311 63.312z"/><path d="m82.9441 250.911c-.5302-1.378.4873-2.859 1.9637-2.858l149.6282.062c1.479.001 2.497 1.486 1.964 2.866-10.929 28.263-38.112 46.897-68.415 46.897h-16.748c-30.319 0-57.5063-18.671-68.3929-46.967z"/><path d="m149.502 269.767c-15.64 0-30.002-8.61-37.378-22.386v-20.203h95.206l-.001 20.202c-7.405 13.78-21.788 22.387-37.445 22.387z"/><path d="m68.4548 108.286v-15.6428c0-50.4082 40.8642-91.27211 91.2722-91.27211 50.408.00001 91.272 40.86391 91.272 91.27211v15.6428 15.643c0 50.409-40.864 91.272-91.272 91.272s-91.2722-40.863-91.2722-91.272z"/><path d="m81.3882 154.342.0004-46.278h156.6784l-.001 46.278v13.45c0 43.266-35.073 78.34-78.339 78.34-43.265 0-78.3388-35.074-78.3388-78.34z"/><path d="m89.6222 124.467c.5342-34.2848 28.4928-61.913 62.9048-61.913h15.946c34.412 0 62.371 27.6282 62.905 61.913z"/><path d="m207.511 87.4328-32.587 57.9452h-7.416c-.074-2.734-2.312-4.912-5.047-4.912h-5.528c-2.74 0-4.986 2.174-5.076 4.912h-6.39l-33.522-57.9464z"/><path d="m49.0052 189.469-.0018-.002c-16.9037-15.246-26.3516-36.618-26.3977-60.132l-.0005-103.917h21.6494l.0004 103.266c0 17.58 7.0639 33.665 19.7809 45.102 12.1826 11.044 28.4718 17.097 45.6371 17.097h64.449v21.509h-64.443c-.001 0-.002 0-.003 0-22.9042-.139-44.4456-8.219-60.6708-22.923z"/></g><path d="m30.1172 33.5938v19.4103m.0001 60.0999v-42.6257"/><circle cx="156.17" cy="201.67" fill="#101029" r="26.3678"/><circle cx="156.17" cy="201.671" fill="#101029" r="15.2292"/><path d="m146.747 201.669c0-5.204 4.219-9.423 9.423-9.423"/><path d="m159.727 298.34v65.602" stroke-linecap="round" stroke-linejoin="round"/><path d="m141.441 98.7236c-8.331-7.4926-19.5-11.7275-31.367-11.7275-11.774 0-22.9431 4.1419-31.2733 11.6345-8.7492 7.9114-13.496 18.8014-13.496 30.7614 0 12.053 4.8399 23.036 13.496 30.855 8.3302 7.585 19.4993 11.727 31.2733 11.727 11.867 0 22.99-4.142 31.367-11.727 8.702-7.912 13.496-18.895 13.496-30.855.093-11.867-4.747-22.757-13.496-30.6684z" fill="#101029"/><path d="m110.092 103.213c-3.901 0-7.695.735-11.1688 2.131m-8.1685 5.063c-5.4099 4.892-8.345 11.625-8.345 19.021 0 7.453 2.9927 14.244 8.345 19.078"/><path d="m240.566 98.7236c-8.33-7.4926-19.499-11.7275-31.366-11.7275-11.774 0-22.943 4.1419-31.274 11.6345-8.749 7.9114-13.496 18.8014-13.496 30.7614 0 12.053 4.84 23.036 13.496 30.855 8.331 7.585 19.5 11.727 31.274 11.727 11.867 0 22.99-4.142 31.366-11.727 8.703-7.912 13.496-18.895 13.496-30.855.093-11.867-4.747-22.757-13.496-30.6684z" fill="#101029"/><path d="m228.047 319c-1.024 1.955-2.327 3.77-3.862 5.352-4.003 4.002-9.354 6.189-14.892 6.189s-10.89-2.187-14.893-6.096c-1.628-1.629-2.931-3.444-4.002-5.445h-24.804c1.908 8.005 6.143 15.171 12.332 20.756 8.33 7.586 19.499 11.727 31.273 11.727 11.868 0 22.99-4.141 31.367-11.727 6.143-5.585 10.378-12.751 12.333-20.756z" fill="#101029"/><path d="m215.498 152.915c3.769-1.01 7.243-2.702 10.237-4.949m6.58-7.005c3.959-6.125 5.052-13.389 3.138-20.533-1.929-7.199-6.578-12.984-12.999-16.268"/></g></svg>