<svg fill="none" height="432" viewBox="0 0 327 432" width="327" xmlns="http://www.w3.org/2000/svg"><g stroke-width="2"><g stroke="#e8e8eb"><circle cx="163.5" cy="251.006" r="129.939" transform="matrix(-.2923717 -.95630476 .95630476 -.2923717 -28.735458 480.74888)"/><path d="m126.76 155.623c-54.0351 16.521-84.5701 73.316-68.2013 126.856"/><circle cx="271.33" cy="110.64" r="28.2301" transform="matrix(-.2923717 -.95630476 .95630476 -.2923717 244.853656 402.462175)"/><path d="m265.622 89.3455c-12.063 3.6879-18.88 16.3665-15.225 28.3185"/><circle cx="202.995" cy="48.5955" r="37.4737" transform="matrix(-.2923717 -.95630476 .95630476 -.2923717 215.872886 256.928533)"/><path d="m195.482 20.5699c-15.878 4.8542-24.85 21.5423-20.04 37.2739"/><circle cx="57.7491" cy="399.299" r="25.0554" transform="matrix(-.2923717 -.95630476 .95630476 -.2923717 -307.21823 571.268468)"/><path d="m52.6609 380.322c-10.7524 3.287-16.8286 14.589-13.5714 25.242"/></g><path d="m235.909 227.08c0 31.437-13.453 48.151-32.445 56.905-18.992-8.754-32.049-25.468-32.049-56.905 6.199-.929 21.287-4.457 32.049-14.326 10.762 9.869 26.246 13.397 32.445 14.326z" stroke="#fff" stroke-linecap="round" stroke-linejoin="round"/><path d="m196.236 233.178c0 44.819-19.29 68.648-46.522 81.129-27.232-12.481-45.954-36.31-45.954-81.129 8.888-1.324 30.523-6.354 45.954-20.424 15.432 14.07 37.634 19.1 46.522 20.424z" fill="#191933" stroke="#fff" stroke-linecap="round" stroke-linejoin="round"/><path d="m133.6 267.139 13.856 12.994 22.241-28.877" stroke="#fff"/></g></svg>