<svg fill="none" height="432" viewBox="0 0 327 432" width="327" xmlns="http://www.w3.org/2000/svg"><g stroke-width="2"><g stroke="#e8e8eb"><circle cx="163.333" cy="250.749" r="129.805" transform="matrix(-.2923717 -.95630476 .95630476 -.2923717 -28.705514 480.257037)"/><path d="m126.631 155.464c-53.9805 16.504-84.4842 73.24-68.1322 126.725"/><circle cx="271.052" cy="110.527" r="28.2002" transform="matrix(-.2923717 -.95630476 .95630476 -.2923717 244.60244 402.050284)"/><path d="m265.35 89.2534c-12.05 3.6841-18.86 16.3496-15.21 28.2896"/><circle cx="202.787" cy="48.547" r="37.4343" transform="matrix(-.2923717 -.95630476 .95630476 -.2923717 215.650454 256.666942)"/><path d="m195.282 20.5495c-15.861 4.8492-24.824 21.5202-20.02 37.2357"/><circle cx="57.6901" cy="398.893" r="25.0287" transform="matrix(-.2923717 -.95630476 .95630476 -.2923717 -306.90622 570.687343)"/><path d="m52.6071 379.933c-10.7415 3.284-16.8114 14.574-13.5575 25.217"/></g><path d="m235.668 226.848c0 31.406-13.439 48.102-32.412 56.848-18.972-8.746-32.016-25.442-32.016-56.848 6.193-.927 21.265-4.452 32.016-14.311 10.751 9.859 26.219 13.384 32.412 14.311z" stroke="#fff" stroke-linecap="round" stroke-linejoin="round"/><path d="m196.035 232.94c0 44.774-19.27 68.578-46.474 81.046-27.204-12.468-45.907-36.272-45.907-81.046 8.879-1.322 30.491-6.347 45.907-20.403 15.416 14.056 37.595 19.081 46.474 20.403z" fill="#101029" stroke="#fff" stroke-linecap="round" stroke-linejoin="round"/><path d="m133.464 266.865 13.841 12.981 22.219-28.848" stroke="#fff"/></g></svg>