<svg width="327" height="432" viewBox="0 0 327 432" fill="none" xmlns="http://www.w3.org/2000/svg">
<circle cx="163.5" cy="251.008" r="129.939" transform="rotate(-107 163.5 251.008)" fill="#101029" stroke="#E8E8EB" stroke-width="2"/>
<path d="M126.76 155.623C72.7249 172.144 42.19 228.939 58.5587 282.479" stroke="#E8E8EB" stroke-width="2"/>
<circle cx="271.33" cy="110.638" r="28.2301" transform="rotate(-107 271.33 110.638)" fill="#101029" stroke="#E8E8EB" stroke-width="2"/>
<path d="M265.622 89.3455C253.559 93.0334 246.742 105.712 250.397 117.664" stroke="#E8E8EB" stroke-width="2"/>
<circle cx="202.995" cy="48.5955" r="37.4737" transform="rotate(-107 202.995 48.5955)" fill="#101029" stroke="#E8E8EB" stroke-width="2"/>
<path d="M195.482 20.568C179.604 25.4221 170.632 42.1102 175.442 57.8418" stroke="#E8E8EB" stroke-width="2"/>
<circle cx="57.7491" cy="399.301" r="25.0554" transform="rotate(-107 57.7491 399.301)" fill="#101029" stroke="#E8E8EB" stroke-width="2"/>
<path d="M52.6609 380.324C41.9085 383.611 35.8323 394.913 39.0895 405.566" stroke="#E8E8EB" stroke-width="2"/>
<path d="M181.73 287.512H200.992H220.318V297.268V314.041L215.494 318.865H186.553L181.73 314.041V287.512Z" fill="#101029" stroke="white" stroke-width="2" stroke-linecap="round"/>
<path d="M190.172 287.506L190.251 280.207C190.314 274.3 195.12 269.545 201.028 269.545V269.545V269.545C207.02 269.545 211.878 274.403 211.878 280.396V287.506" stroke="white" stroke-width="2" stroke-linecap="square" stroke-linejoin="round"/>
<path d="M201.029 305.049V300.445" stroke="white" stroke-width="2" stroke-linecap="square" stroke-linejoin="round"/>
<path d="M121.181 301.289V216.804H227.043V204.589H154.772L145.611 195.428H108.966V301.289H121.181Z" fill="#101029"/>
<path d="M220.714 301.289H236.204V216.804H227.043M121.181 301.289V216.804H227.043M121.181 301.289H181.248M121.181 301.289H108.966V195.428H145.611L154.772 204.589H227.043V216.804" stroke="white" stroke-width="2" stroke-linecap="square" stroke-linejoin="round"/>
</svg>
