<svg fill="none" height="432" viewBox="0 0 328 432" width="328" xmlns="http://www.w3.org/2000/svg"><g stroke-width="2"><circle cx="164.439" cy="250.947" fill="#191933" r="129.907" stroke="#e8e8eb" transform="matrix(-.2923717 -.95630476 .95630476 -.2923717 -27.465499 481.5706)"/><path d="m127.708 155.586c-54.0227 16.516-84.5504 73.297-68.1855 126.824" stroke="#e8e8eb"/><circle cx="272.242" cy="110.611" fill="#191933" r="28.2231" stroke="#e8e8eb" transform="matrix(-.2923717 -.95630476 .95630476 -.2923717 246.060032 403.296846)"/><path d="m266.536 89.323c-12.06 3.6871-18.875 16.363-15.222 28.312" stroke="#e8e8eb"/><circle cx="203.924" cy="48.5817" fill="#191933" r="37.4645" stroke="#e8e8eb" transform="matrix(-.2923717 -.95630476 .95630476 -.2923717 217.086697 257.799106)"/><path d="m196.412 20.5633c-15.873 4.853-24.843 21.537-20.034 37.2648" stroke="#e8e8eb"/><circle cx="58.7131" cy="399.202" fill="#191933" r="25.0491" stroke="#e8e8eb" transform="matrix(-.2923717 -.95630476 .95630476 -.2923717 -305.879622 572.064986)"/><path d="m53.6261 380.228c-10.7499 3.287-16.8245 14.586-13.5681 25.237" stroke="#e8e8eb"/><path d="m182.664 287.443h19.257 19.322v9.755 16.768l-4.823 4.823h-28.934l-4.822-4.823z" fill="#191933" stroke="#fff" stroke-linecap="round"/><path d="m191.104 287.437.079-7.297c.063-5.906 4.868-10.66 10.774-10.66 5.991 0 10.848 4.857 10.848 10.848v7.109" stroke="#fff" stroke-linecap="square" stroke-linejoin="round"/><path d="m201.959 304.977v-4.604" stroke="#fff" stroke-linecap="square" stroke-linejoin="round"/></g><path d="m122.13 301.213v-84.465h105.836v-12.212h-72.253l-9.159-9.159h-36.636v105.836z" fill="#191933"/><path d="m221.639 301.213h15.486v-84.465h-9.159m-105.836 84.465v-84.465h105.836m-105.836 84.465h60.053m-60.053 0h-12.212v-105.836h36.636l9.159 9.159h72.253v12.212" stroke="#fff" stroke-linecap="square" stroke-linejoin="round" stroke-width="2"/></svg>