<svg width="328" height="432" viewBox="0 0 328 432" fill="none" xmlns="http://www.w3.org/2000/svg">
<circle cx="164.439" cy="250.947" r="129.907" transform="rotate(-107 164.439 250.947)" fill="#191933" stroke="#E8E8EB" stroke-width="2"/>
<path d="M127.708 155.586C73.6853 172.102 43.1576 228.883 59.5225 282.41" stroke="#E8E8EB" stroke-width="2"/>
<circle cx="272.242" cy="110.611" r="28.2231" transform="rotate(-107 272.242 110.611)" fill="#191933" stroke="#E8E8EB" stroke-width="2"/>
<path d="M266.536 89.323C254.476 93.0101 247.661 105.686 251.314 117.635" stroke="#E8E8EB" stroke-width="2"/>
<circle cx="203.924" cy="48.5817" r="37.4645" transform="rotate(-107 203.924 48.5817)" fill="#191933" stroke="#E8E8EB" stroke-width="2"/>
<path d="M196.412 20.5633C180.539 25.4163 171.569 42.1003 176.378 57.8281" stroke="#E8E8EB" stroke-width="2"/>
<circle cx="58.7131" cy="399.202" r="25.0491" transform="rotate(-107 58.7131 399.202)" fill="#191933" stroke="#E8E8EB" stroke-width="2"/>
<path d="M53.6261 380.228C42.8762 383.515 36.8016 394.814 40.058 405.465" stroke="#E8E8EB" stroke-width="2"/>
<path d="M182.664 287.443H201.921H221.243V297.198V313.966L216.42 318.789H187.486L182.664 313.966V287.443Z" fill="#191933" stroke="white" stroke-width="2" stroke-linecap="round"/>
<path d="M191.104 287.437L191.183 280.14C191.246 274.234 196.051 269.48 201.957 269.48V269.48V269.48C207.948 269.48 212.805 274.337 212.805 280.328V287.437" stroke="white" stroke-width="2" stroke-linecap="square" stroke-linejoin="round"/>
<path d="M201.959 304.977V300.373" stroke="white" stroke-width="2" stroke-linecap="square" stroke-linejoin="round"/>
<path d="M122.13 301.213V216.748H227.966V204.536H155.713L146.554 195.377H109.918V301.213H122.13Z" fill="#191933"/>
<path d="M221.639 301.213H237.125V216.748H227.966M122.13 301.213V216.748H227.966M122.13 301.213H182.183M122.13 301.213H109.918V195.377H146.554L155.713 204.536H227.966V216.748" stroke="white" stroke-width="2" stroke-linecap="square" stroke-linejoin="round"/>
</svg>
