<svg width="327" height="432" viewBox="0 0 327 432" fill="none" xmlns="http://www.w3.org/2000/svg">
<circle cx="163.333" cy="250.749" r="129.805" transform="rotate(-107 163.333 250.749)" stroke="#E8E8EB" stroke-width="2"/>
<path d="M126.631 155.464C72.6505 171.968 42.1468 228.704 58.4988 282.189" stroke="#E8E8EB" stroke-width="2"/>
<circle cx="271.052" cy="110.527" r="28.2002" transform="rotate(-107 271.052 110.527)" stroke="#E8E8EB" stroke-width="2"/>
<path d="M265.35 89.2534C253.3 92.9375 246.49 105.603 250.14 117.543" stroke="#E8E8EB" stroke-width="2"/>
<circle cx="202.787" cy="48.547" r="37.4343" transform="rotate(-107 202.787 48.547)" stroke="#E8E8EB" stroke-width="2"/>
<path d="M195.282 20.5495C179.421 25.3987 170.458 42.0697 175.262 57.7852" stroke="#E8E8EB" stroke-width="2"/>
<circle cx="57.6901" cy="398.893" r="25.0287" transform="rotate(-107 57.6901 398.893)" stroke="#E8E8EB" stroke-width="2"/>
<path d="M52.6071 379.933C41.8656 383.217 35.7957 394.507 39.0496 405.15" stroke="#E8E8EB" stroke-width="2"/>
<path d="M235.668 226.848C235.668 258.254 222.229 274.95 203.256 283.696C184.284 274.95 171.24 258.254 171.24 226.848C177.433 225.921 192.505 222.396 203.256 212.537C214.007 222.396 229.475 225.921 235.668 226.848Z" stroke="white" stroke-width="2" stroke-linecap="round" stroke-linejoin="round"/>
<path d="M196.035 232.94C196.035 277.714 176.765 301.518 149.561 313.986C122.357 301.518 103.654 277.714 103.654 232.94C112.533 231.618 134.145 226.593 149.561 212.537C164.977 226.593 187.156 231.618 196.035 232.94Z" fill="#101029" stroke="white" stroke-width="2" stroke-linecap="round" stroke-linejoin="round"/>
<path d="M133.464 266.865L147.305 279.846L169.524 250.998" stroke="white" stroke-width="2"/>
</svg>
