<svg width="24" height="24" viewBox="0 0 24 24" fill="none" xmlns="http://www.w3.org/2000/svg">
<path d="M12.0015 14.8569C13.5794 14.8569 14.8586 13.5777 14.8586 11.9997C14.8586 10.4218 13.5794 9.14258 12.0015 9.14258C10.4235 9.14258 9.14432 10.4218 9.14432 11.9997C9.14432 13.5777 10.4235 14.8569 12.0015 14.8569Z" stroke="#191933" stroke-width="2" stroke-linecap="round" stroke-linejoin="round"/>
<path d="M2 11.9445L1.13491 11.4429L0.846349 11.9406L1.13149 12.4402L2 11.9445ZM22 11.9445L22.8685 12.4402L23.1537 11.9406L22.8651 11.4429L22 11.9445ZM2 11.9445C2.86509 12.4461 2.86495 12.4464 2.86482 12.4466C2.8648 12.4466 2.86469 12.4468 2.86465 12.4469C2.86456 12.447 2.86453 12.4471 2.86456 12.447C2.86462 12.4469 2.86493 12.4464 2.86547 12.4455C2.86656 12.4436 2.86861 12.4401 2.87161 12.4351C2.87761 12.425 2.88741 12.4086 2.90095 12.3863C2.92804 12.3418 2.97005 12.2739 3.02647 12.1859C3.13938 12.0099 3.30954 11.7542 3.5328 11.4454C3.98057 10.8263 4.63545 10.0029 5.4636 9.18284C7.14544 7.5175 9.40414 6 12 6V4C8.6225 4 5.88119 5.95476 4.05638 7.76167C3.13119 8.67778 2.40608 9.59049 1.91219 10.2734C1.66462 10.6157 1.47353 10.9026 1.3429 11.1063C1.27755 11.2082 1.22722 11.2895 1.19241 11.3467C1.175 11.3753 1.16146 11.3979 1.15186 11.4141C1.14706 11.4222 1.14324 11.4286 1.14041 11.4335C1.139 11.4359 1.13783 11.4379 1.13691 11.4394C1.13645 11.4402 1.13606 11.4409 1.13572 11.4415C1.13556 11.4418 1.13535 11.4421 1.13527 11.4423C1.13508 11.4426 1.13491 11.4429 2 11.9445ZM12 6C14.5959 6 16.8546 7.5175 18.5364 9.18284C19.3645 10.0029 20.0194 10.8263 20.4672 11.4454C20.6905 11.7542 20.8606 12.0099 20.9735 12.1859C21.0299 12.2739 21.072 12.3418 21.099 12.3863C21.1126 12.4086 21.1224 12.425 21.1284 12.4351C21.1314 12.4401 21.1334 12.4436 21.1345 12.4455C21.1351 12.4464 21.1354 12.4469 21.1354 12.447C21.1355 12.4471 21.1354 12.447 21.1354 12.4469C21.1353 12.4468 21.1352 12.4466 21.1352 12.4466C21.135 12.4464 21.1349 12.4461 22 11.9445C22.8651 11.4429 22.8649 11.4426 22.8647 11.4423C22.8646 11.4421 22.8644 11.4418 22.8643 11.4415C22.8639 11.4409 22.8635 11.4402 22.8631 11.4394C22.8622 11.4379 22.861 11.4359 22.8596 11.4335C22.8568 11.4286 22.8529 11.4222 22.8481 11.4141C22.8385 11.3979 22.825 11.3753 22.8076 11.3467C22.7728 11.2895 22.7225 11.2082 22.6571 11.1063C22.5265 10.9026 22.3354 10.6157 22.0878 10.2734C21.5939 9.59049 20.8688 8.67778 19.9436 7.76167C18.1188 5.95476 15.3775 4 12 4V6ZM22 11.9445C21.1315 11.4488 21.1316 11.4486 21.1318 11.4484C21.1318 11.4483 21.1319 11.4482 21.1319 11.4481C21.132 11.4479 21.132 11.4479 21.132 11.4479C21.1319 11.4481 21.1316 11.4486 21.1311 11.4496C21.13 11.4515 21.1279 11.4551 21.1249 11.4602C21.1188 11.4705 21.109 11.4873 21.0954 11.5099C21.0683 11.5553 21.0262 11.6244 20.9697 11.7139C20.8566 11.8931 20.6863 12.1531 20.4628 12.467C20.0147 13.0966 19.3594 13.9337 18.5308 14.7673C16.8469 16.4613 14.5898 18 12 18V20C15.3835 20 18.1264 18.011 19.9492 16.1772C20.874 15.2469 21.5987 14.3201 22.0922 13.6268C22.3396 13.2793 22.5305 12.9881 22.661 12.7814C22.7262 12.678 22.7765 12.5956 22.8112 12.5376C22.8286 12.5086 22.8421 12.4857 22.8517 12.4693C22.8564 12.4611 22.8602 12.4545 22.8631 12.4497C22.8645 12.4472 22.8656 12.4452 22.8665 12.4436C22.867 12.4428 22.8674 12.4422 22.8677 12.4416C22.8679 12.4413 22.8681 12.4409 22.8682 12.4408C22.8683 12.4405 22.8685 12.4402 22 11.9445ZM12 18C9.41017 18 7.15308 16.4613 5.46921 14.7673C4.64064 13.9337 3.98534 13.0966 3.53718 12.467C3.31373 12.1531 3.1434 11.8931 3.03033 11.7139C2.97383 11.6244 2.93174 11.5553 2.90458 11.5099C2.891 11.4873 2.88116 11.4705 2.87512 11.4602C2.87211 11.4551 2.87004 11.4515 2.86894 11.4496C2.86838 11.4486 2.86807 11.4481 2.868 11.4479C2.86797 11.4479 2.86799 11.4479 2.86808 11.4481C2.86812 11.4482 2.86823 11.4483 2.86825 11.4484C2.86837 11.4486 2.86851 11.4488 2 11.9445C1.13149 12.4402 1.13166 12.4405 1.13184 12.4408C1.13193 12.4409 1.13213 12.4413 1.13229 12.4416C1.13262 12.4422 1.13302 12.4428 1.13347 12.4436C1.13438 12.4452 1.13554 12.4472 1.13695 12.4497C1.13976 12.4545 1.14356 12.4611 1.14834 12.4693C1.15791 12.4857 1.17141 12.5086 1.18878 12.5376C1.22352 12.5956 1.27377 12.678 1.33905 12.7814C1.46952 12.9881 1.66043 13.2793 1.90781 13.6268C2.40132 14.3201 3.126 15.2469 4.05077 16.1772C5.87355 18.011 8.61647 20 12 20V18Z" fill="#191933"/>
</svg>
