<svg width="24" height="24" viewBox="0 0 24 24" fill="none" xmlns="http://www.w3.org/2000/svg">
<path d="M17.3546 10.0042H21.0062V6.39258" stroke="white" stroke-width="2" stroke-linecap="square"/>
<path d="M19.951 10.303C19.5273 8.43794 18.457 6.78313 16.9298 5.63173C15.4027 4.48033 13.5172 3.90669 11.6076 4.01245C9.69795 4.11821 7.88738 4.89654 6.4967 6.20953C5.39947 7.24546 4.61952 8.56145 4.2335 10.0041" stroke="white" stroke-width="2"/>
<path d="M6.65369 13.9986H3.00212V17.6102" stroke="white" stroke-width="2" stroke-linecap="square"/>
<path d="M4.05725 13.697C4.48102 15.5621 5.55131 17.2169 7.07847 18.3683C8.60563 19.5197 10.4911 20.0933 12.4007 19.9876C14.3104 19.8818 16.1209 19.1035 17.5116 17.7905C18.6088 16.7545 19.3888 15.4385 19.7748 13.9959" stroke="white" stroke-width="2"/>
</svg>
