<svg width="33" height="32" viewBox="0 0 33 32" fill="none" xmlns="http://www.w3.org/2000/svg">
<path d="M27.7952 26H6.15653C4.70751 26 3.5 24.8278 3.5 23.3138V10.2247C3.5 8.71062 4.65921 6 6.15653 6H27.8435C29.2925 6 30.5 8.71062 30.5 10.2247V23.3626C30.4517 24.779 29.2925 26 27.7952 26ZM6.15653 6.87912C5.19052 6.87912 4.41771 9.19902 4.41771 10.1758V23.3138C4.41771 24.2906 5.19052 25.072 6.15653 25.072H27.8435C28.8095 25.072 29.5823 24.2906 29.5823 23.3138V10.2247C29.5823 9.24786 28.8095 6.92796 27.8435 6.92796H6.15653V6.87912Z" fill="#E8E8EB"/>
<path d="M30.017 14.6203H3.9347C3.6932 14.6203 3.5 14.4249 3.5 14.1807V10.7131C3.5 10.4689 3.6932 10.2735 3.9347 10.2735H30.017C30.2585 10.2735 30.4517 10.4689 30.4517 10.7131V14.1807C30.4517 14.4249 30.2585 14.6203 30.017 14.6203ZM4.36941 13.7411H29.5823V11.1526H4.36941V13.7411Z" fill="#E8E8EB"/>
<path d="M8.66816 23.265C7.65385 23.265 6.78444 22.4347 6.78444 21.3602C6.78444 20.3346 7.60555 19.4554 8.66816 19.4554C9.68247 19.4554 10.5519 20.2857 10.5519 21.3602C10.5519 22.4347 9.73077 23.265 8.66816 23.265ZM8.66816 20.3346C8.13685 20.3346 7.65385 20.7741 7.65385 21.3602C7.65385 21.8974 8.08855 22.3858 8.66816 22.3858C9.19946 22.3858 9.68247 21.9463 9.68247 21.3602C9.68247 20.823 9.24776 20.3346 8.66816 20.3346Z" fill="#E8E8EB"/>
<path d="M11.5662 23.265C10.5519 23.265 9.68247 22.4347 9.68247 21.3602C9.68247 20.3346 10.5036 19.4554 11.5662 19.4554C12.5805 19.4554 13.4499 20.2857 13.4499 21.3602C13.4499 22.4347 12.5805 23.265 11.5662 23.265ZM11.5662 20.3346C11.0349 20.3346 10.5519 20.7741 10.5519 21.3602C10.5519 21.8974 10.9866 22.3858 11.5662 22.3858C12.0975 22.3858 12.5805 21.9463 12.5805 21.3602C12.5805 20.823 12.0975 20.3346 11.5662 20.3346Z" fill="#E8E8EB"/>
<path d="M10.5519 21.3602C10.5519 20.2857 9.68247 19.4554 8.66816 19.4554C7.60555 19.4554 6.78444 20.3346 6.78444 21.3602C6.78444 22.4347 7.65385 23.265 8.66816 23.265C9.73077 23.265 10.5519 22.4347 10.5519 21.3602ZM10.5519 21.3602C10.5519 20.7741 11.0349 20.3346 11.5662 20.3346C12.0975 20.3346 12.5805 20.823 12.5805 21.3602C12.5805 21.9463 12.0975 22.3858 11.5662 22.3858C10.9866 22.3858 10.5519 21.8974 10.5519 21.3602ZM9.68247 21.3602C9.68247 21.9463 9.19946 22.3858 8.66816 22.3858C8.08855 22.3858 7.65385 21.8974 7.65385 21.3602C7.65385 20.7741 8.13685 20.3346 8.66816 20.3346C9.24776 20.3346 9.68247 20.823 9.68247 21.3602ZM9.68247 21.3602C9.68247 22.4347 10.5519 23.265 11.5662 23.265C12.5805 23.265 13.4499 22.4347 13.4499 21.3602C13.4499 20.2857 12.5805 19.4554 11.5662 19.4554C10.5036 19.4554 9.68247 20.3346 9.68247 21.3602ZM27.7952 26H6.15653C4.70751 26 3.5 24.8278 3.5 23.3138V10.2247C3.5 8.71062 4.65921 6 6.15653 6H27.8435C29.2925 6 30.5 8.71062 30.5 10.2247V23.3626C30.4517 24.779 29.2925 26 27.7952 26ZM6.15653 6.87912C5.19052 6.87912 4.41771 9.19902 4.41771 10.1758V23.3138C4.41771 24.2906 5.19052 25.072 6.15653 25.072H27.8435C28.8095 25.072 29.5823 24.2906 29.5823 23.3138V10.2247C29.5823 9.24786 28.8095 6.92796 27.8435 6.92796H6.15653V6.87912ZM30.017 14.6203H3.9347C3.6932 14.6203 3.5 14.4249 3.5 14.1807V10.7131C3.5 10.4689 3.6932 10.2735 3.9347 10.2735H30.017C30.2585 10.2735 30.4517 10.4689 30.4517 10.7131V14.1807C30.4517 14.4249 30.2585 14.6203 30.017 14.6203ZM4.36941 13.7411H29.5823V11.1526H4.36941V13.7411Z" stroke="#E8E8EB" stroke-width="0.5"/>
</svg>
