<svg width="33" height="32" viewBox="0 0 33 32" fill="none" xmlns="http://www.w3.org/2000/svg">
<path d="M16.4768 22.907C12.6764 22.907 9.61762 19.8372 9.61762 16.0233C9.61762 12.2093 12.6764 9.09302 16.4768 9.09302C20.2772 9.09302 23.336 12.1628 23.336 15.9767C23.336 19.7907 20.2308 22.907 16.4768 22.907ZM16.4768 9.97674C13.1399 9.97674 10.4518 12.6744 10.4518 16.0233C10.4518 19.3721 13.1399 22.0698 16.4768 22.0698C19.8137 22.0698 22.5018 19.3721 22.5018 16.0233C22.4554 12.6744 19.7674 9.97674 16.4768 9.97674Z" fill="#E8E8EB"/>
<path d="M17.2184 29H15.7353C14.6693 29 13.7888 28.1163 13.7888 27.0465V25.7907C12.9545 25.5581 12.1667 25.2326 11.4251 24.814L10.5446 25.6977C9.80303 26.4419 8.55169 26.4419 7.81016 25.6977L6.74421 24.6279C6.00267 23.8837 6.00267 22.6279 6.74421 21.8837L7.67112 21.0465C7.25401 20.3023 6.92959 19.5116 6.69786 18.6744H5.44652C4.38057 18.6744 3.5 17.7907 3.5 16.7209V15.2326C3.5 14.1628 4.38057 13.2791 5.44652 13.2791H6.69786C6.92959 12.4419 7.25401 11.6512 7.67112 10.907L6.79055 10.0233C6.41979 9.65116 6.2344 9.18605 6.2344 8.67442C6.2344 8.16279 6.41979 7.65116 6.79055 7.32558L7.85651 6.25581C8.59804 5.51163 9.84938 5.51163 10.5909 6.25581L11.4251 7.18605C12.1667 6.76744 12.9545 6.44186 13.7888 6.2093V4.95349C13.7888 3.88372 14.6693 3 15.7353 3H17.2184C18.2843 3 19.1649 3.88372 19.1649 4.95349V6.2093C19.9991 6.44186 20.787 6.76744 21.5285 7.18605L22.4091 6.30233C23.1506 5.55814 24.402 5.55814 25.1435 6.30233L26.2094 7.37209C26.5802 7.74419 26.7656 8.2093 26.7656 8.72093C26.7656 9.23256 26.5802 9.74419 26.2094 10.0698L25.3289 10.9535C25.746 11.6977 26.0704 12.4884 26.3021 13.3256H27.5535C28.6194 13.3256 29.5 14.2093 29.5 15.2791V16.7674C29.5 17.8372 28.6194 18.7209 27.5535 18.7209H26.2094C25.9777 19.5581 25.6533 20.3488 25.2362 21.093L26.1168 21.9767C26.8583 22.7209 26.8583 23.9767 26.1168 24.7209L25.0508 25.7907C24.3093 26.5349 23.0579 26.5349 22.3164 25.7907L21.4358 24.907C20.6943 25.3256 19.9064 25.6512 19.0722 25.8837V27.1395C19.1185 28.1163 18.238 29 17.2184 29ZM11.3788 23.8837C11.4715 23.8837 11.5178 23.8837 11.6105 23.9302C12.4447 24.4419 13.3717 24.814 14.2986 25.0465C14.484 25.093 14.623 25.2791 14.623 25.4651V27.0465C14.623 27.6512 15.1328 28.1163 15.6889 28.1163H17.172C17.7745 28.1163 18.238 27.6047 18.238 27.0465V25.4651C18.238 25.2791 18.377 25.093 18.5624 25.0465C19.5357 24.814 20.4162 24.4419 21.2504 23.9302C21.4358 23.8372 21.6676 23.8372 21.8066 24.0233L22.9189 25.1395C23.336 25.5581 24.0312 25.5581 24.4483 25.1395L25.5143 24.0698C25.9314 23.6512 25.9314 22.9535 25.5143 22.5349L24.402 21.4186C24.2629 21.2791 24.2166 21.0465 24.3093 20.8605C24.8191 20.0233 25.1898 19.093 25.4216 18.1628C25.4679 17.9767 25.6533 17.8372 25.8387 17.8372H27.4144C28.0169 17.8372 28.4804 17.3256 28.4804 16.7674V15.2791C28.4804 14.6744 27.9706 14.2093 27.4144 14.2093H25.8387C25.6533 14.2093 25.4679 14.0698 25.4216 13.8837C25.1898 12.907 24.8191 12.0233 24.3093 11.186C24.2166 11 24.2166 10.814 24.3556 10.6744L25.4679 9.55814C25.6533 9.37209 25.7923 9.09302 25.7923 8.76744C25.7923 8.48837 25.6996 8.2093 25.4679 7.97674L24.402 6.90698C23.9848 6.48837 23.2897 6.48837 22.8726 6.90698L21.7603 8.02326C21.6212 8.16279 21.3895 8.2093 21.2504 8.06977C20.4162 7.55814 19.4893 7.18605 18.5624 6.95349C18.377 6.90698 18.238 6.72093 18.238 6.53488V4.95349C18.238 4.34884 17.7282 3.88372 17.172 3.88372H15.6889C15.0865 3.88372 14.623 4.39535 14.623 4.95349V6.53488C14.623 6.72093 14.484 6.90698 14.2986 6.95349C13.3253 7.18605 12.4447 7.55814 11.6105 8.06977C11.4251 8.16279 11.2398 8.16279 11.1007 8.02326L9.98841 6.90698C9.5713 6.48837 8.87611 6.48837 8.459 6.90698L7.39305 7.97674C7.20766 8.16279 7.06863 8.44186 7.06863 8.76744C7.06863 9.04651 7.16132 9.32558 7.39305 9.55814L8.50535 10.6744C8.64439 10.814 8.69073 11.0465 8.55169 11.186C8.04189 12.0233 7.67112 12.9535 7.43939 13.8837C7.39305 14.0233 7.20766 14.1628 7.02228 14.1628H5.44652C4.84403 14.1628 4.38057 14.6744 4.38057 15.2326V16.7209C4.38057 17.3256 4.89037 17.7907 5.44652 17.7907H7.02228C7.20766 17.7907 7.39305 17.9302 7.43939 18.1163C7.67112 19.093 8.04189 19.9767 8.55169 20.814C8.64438 21 8.64439 21.2326 8.459 21.3721L7.3467 22.5349C6.92959 22.9535 6.92959 23.6512 7.3467 24.0698L8.41266 25.1395C8.82977 25.5581 9.52496 25.5581 9.94207 25.1395L11.0544 24.0233C11.1471 23.9302 11.2398 23.8837 11.3788 23.8837Z" fill="#E8E8EB"/>
<path d="M16.4768 22.907C12.6764 22.907 9.61762 19.8372 9.61762 16.0233C9.61762 12.2093 12.6764 9.09302 16.4768 9.09302C20.2772 9.09302 23.336 12.1628 23.336 15.9767C23.336 19.7907 20.2308 22.907 16.4768 22.907ZM16.4768 9.97674C13.1399 9.97674 10.4518 12.6744 10.4518 16.0233C10.4518 19.3721 13.1399 22.0698 16.4768 22.0698C19.8137 22.0698 22.5018 19.3721 22.5018 16.0233C22.4554 12.6744 19.7674 9.97674 16.4768 9.97674Z" stroke="#E8E8EB" stroke-width="0.5"/>
<path d="M17.2184 29H15.7353C14.6693 29 13.7888 28.1163 13.7888 27.0465V25.7907C12.9545 25.5581 12.1667 25.2326 11.4251 24.814L10.5446 25.6977C9.80303 26.4419 8.55169 26.4419 7.81016 25.6977L6.74421 24.6279C6.00267 23.8837 6.00267 22.6279 6.74421 21.8837L7.67112 21.0465C7.25401 20.3023 6.92959 19.5116 6.69786 18.6744H5.44652C4.38057 18.6744 3.5 17.7907 3.5 16.7209V15.2326C3.5 14.1628 4.38057 13.2791 5.44652 13.2791H6.69786C6.92959 12.4419 7.25401 11.6512 7.67112 10.907L6.79055 10.0233C6.41979 9.65116 6.2344 9.18605 6.2344 8.67442C6.2344 8.16279 6.41979 7.65116 6.79055 7.32558L7.85651 6.25581C8.59804 5.51163 9.84938 5.51163 10.5909 6.25581L11.4251 7.18605C12.1667 6.76744 12.9545 6.44186 13.7888 6.2093V4.95349C13.7888 3.88372 14.6693 3 15.7353 3H17.2184C18.2843 3 19.1649 3.88372 19.1649 4.95349V6.2093C19.9991 6.44186 20.787 6.76744 21.5285 7.18605L22.4091 6.30233C23.1506 5.55814 24.402 5.55814 25.1435 6.30233L26.2094 7.37209C26.5802 7.74419 26.7656 8.2093 26.7656 8.72093C26.7656 9.23256 26.5802 9.74419 26.2094 10.0698L25.3289 10.9535C25.746 11.6977 26.0704 12.4884 26.3021 13.3256H27.5535C28.6194 13.3256 29.5 14.2093 29.5 15.2791V16.7674C29.5 17.8372 28.6194 18.7209 27.5535 18.7209H26.2094C25.9777 19.5581 25.6533 20.3488 25.2362 21.093L26.1168 21.9767C26.8583 22.7209 26.8583 23.9767 26.1168 24.7209L25.0508 25.7907C24.3093 26.5349 23.0579 26.5349 22.3164 25.7907L21.4358 24.907C20.6943 25.3256 19.9064 25.6512 19.0722 25.8837V27.1395C19.1185 28.1163 18.238 29 17.2184 29ZM11.3788 23.8837C11.4715 23.8837 11.5178 23.8837 11.6105 23.9302C12.4447 24.4419 13.3717 24.814 14.2986 25.0465C14.484 25.093 14.623 25.2791 14.623 25.4651V27.0465C14.623 27.6512 15.1328 28.1163 15.6889 28.1163H17.172C17.7745 28.1163 18.238 27.6047 18.238 27.0465V25.4651C18.238 25.2791 18.377 25.093 18.5624 25.0465C19.5357 24.814 20.4162 24.4419 21.2504 23.9302C21.4358 23.8372 21.6676 23.8372 21.8066 24.0233L22.9189 25.1395C23.336 25.5581 24.0312 25.5581 24.4483 25.1395L25.5143 24.0698C25.9314 23.6512 25.9314 22.9535 25.5143 22.5349L24.402 21.4186C24.2629 21.2791 24.2166 21.0465 24.3093 20.8605C24.8191 20.0233 25.1898 19.093 25.4216 18.1628C25.4679 17.9767 25.6533 17.8372 25.8387 17.8372H27.4144C28.0169 17.8372 28.4804 17.3256 28.4804 16.7674V15.2791C28.4804 14.6744 27.9706 14.2093 27.4144 14.2093H25.8387C25.6533 14.2093 25.4679 14.0698 25.4216 13.8837C25.1898 12.907 24.8191 12.0233 24.3093 11.186C24.2166 11 24.2166 10.814 24.3556 10.6744L25.4679 9.55814C25.6533 9.37209 25.7923 9.09302 25.7923 8.76744C25.7923 8.48837 25.6996 8.2093 25.4679 7.97674L24.402 6.90698C23.9848 6.48837 23.2897 6.48837 22.8726 6.90698L21.7603 8.02326C21.6212 8.16279 21.3895 8.2093 21.2504 8.06977C20.4162 7.55814 19.4893 7.18605 18.5624 6.95349C18.377 6.90698 18.238 6.72093 18.238 6.53488V4.95349C18.238 4.34884 17.7282 3.88372 17.172 3.88372H15.6889C15.0865 3.88372 14.623 4.39535 14.623 4.95349V6.53488C14.623 6.72093 14.484 6.90698 14.2986 6.95349C13.3253 7.18605 12.4447 7.55814 11.6105 8.06977C11.4251 8.16279 11.2398 8.16279 11.1007 8.02326L9.98841 6.90698C9.5713 6.48837 8.87611 6.48837 8.459 6.90698L7.39305 7.97674C7.20766 8.16279 7.06863 8.44186 7.06863 8.76744C7.06863 9.04651 7.16132 9.32558 7.39305 9.55814L8.50535 10.6744C8.64439 10.814 8.69073 11.0465 8.55169 11.186C8.04189 12.0233 7.67112 12.9535 7.43939 13.8837C7.39305 14.0233 7.20766 14.1628 7.02228 14.1628H5.44652C4.84403 14.1628 4.38057 14.6744 4.38057 15.2326V16.7209C4.38057 17.3256 4.89037 17.7907 5.44652 17.7907H7.02228C7.20766 17.7907 7.39305 17.9302 7.43939 18.1163C7.67112 19.093 8.04189 19.9767 8.55169 20.814C8.64438 21 8.64439 21.2326 8.459 21.3721L7.3467 22.5349C6.92959 22.9535 6.92959 23.6512 7.3467 24.0698L8.41266 25.1395C8.82977 25.5581 9.52496 25.5581 9.94207 25.1395L11.0544 24.0233C11.1471 23.9302 11.2398 23.8837 11.3788 23.8837Z" stroke="#E8E8EB" stroke-width="0.5"/>
</svg>
