<svg fill="none" height="492" viewBox="0 0 340 492" width="340" xmlns="http://www.w3.org/2000/svg"><g stroke="#fff" stroke-width="2"><circle cx="170.062" cy="303.854" fill="#14ca89" r="135.028" transform="matrix(-.2923717 -.95630476 .95630476 -.2923717 -70.793708 555.323411)"/><path d="m131.894 204.763c-56.1356 17.163-87.8573 76.165-70.8524 131.786"/><circle cx="282.082" cy="137.918" fill="#14ca89" r="29.3662" transform="matrix(-.2923717 -.95630476 .95630476 -.2923717 232.663156 447.997679)"/><path d="m276.152 115.799c-12.531 3.831-19.613 17.002-15.817 29.419"/><circle cx="210.908" cy="49.908" fill="#14ca89" r="38.969" transform="matrix(-.2923717 -.95630476 .95630476 -.2923717 224.844274 266.192011)"/><path d="m203.103 20.7921c-16.495 5.0429-25.815 22.3795-20.819 38.7225"/><circle cx="60.2007" cy="457.912" fill="#14ca89" r="26.068" transform="matrix(-.2923717 -.95630476 .95630476 -.2923717 -360.101742 649.362728)"/><path d="m54.9147 438.194c-11.1704 3.415-17.4826 15.156-14.0988 26.224"/><path d="m139.913 285.563c-2.28-4.024-6.098-7.145-10.743-8.699-4.609-1.542-9.524-1.384-13.766.458-4.462 1.951-7.746 5.592-9.313 10.274-1.579 4.719-1.122 9.652 1.242 13.847 2.267 4.06 6.097 7.144 10.706 8.687 4.646 1.554 9.542 1.389 13.815-.483 4.443-1.957 7.758-5.629 9.325-10.31 1.59-4.634 1.122-9.531-1.266-13.774z" fill="#14ca89"/><path d="m127.053 283.216c-1.528-.511-3.109-.72-4.652-.629m-3.861.912c-2.758 1.206-4.789 3.458-5.758 6.353-.976 2.918-.694 5.968.768 8.562"/><path d="m246.125 321.102c-2.28-4.024-6.097-7.145-10.743-8.699-4.609-1.542-9.524-1.384-13.766.458-4.461 1.951-7.746 5.592-9.312 10.274-1.579 4.719-1.123 9.652 1.241 13.847 2.268 4.06 6.098 7.145 10.707 8.687 4.645 1.554 9.542 1.39 13.815-.483 4.443-1.957 7.758-5.628 9.324-10.31 1.591-4.634 1.123-9.531-1.266-13.774z" fill="#14ca89"/><path d="m233.265 318.755c-1.527-.511-3.109-.72-4.651-.629m-3.861.912c-2.759 1.207-4.79 3.458-5.758 6.353-.977 2.918-.695 5.968.768 8.562"/><path d="m153.013 342c2.973 5.323 7.993 9.367 14.036 11.388 6.09 2.038 12.509 1.822 18.11-.632"/></g></svg>