<svg fill="none" height="516" viewBox="0 0 341 516" width="341" xmlns="http://www.w3.org/2000/svg"><g stroke="#fff" stroke-width="2"><circle cx="47.6939" cy="389.458" fill="#14ca89" r="25.6056" transform="matrix(-.2923717 -.95630476 .95630476 -.2923717 -310.802291 548.934403)"/><path d="m41.8853 371.217c-10.0084 3.06-15.6641 13.579-12.6323 23.496"/><circle cx="298.694" cy="33.2216" fill="#14ca89" r="25.6056" transform="matrix(-.2923717 -.95630476 .95630476 -.2923717 354.2537 328.577149)"/><path d="m292.885 14.9805c-10.008 3.0599-15.664 13.5794-12.632 23.4961"/><circle cx="120.908" cy="465.691" fill="#14ca89" r="38.969" transform="matrix(-.2923717 -.95630476 .95630476 -.2923717 -289.08444 717.470767)"/><path d="m113.103 436.576c-16.4943 5.043-25.8151 22.38-20.8186 38.723"/><circle cx="170.5" cy="217.599" fill="#14ca89" r="135.028" transform="matrix(-.2923717 -.95630476 .95630476 -.2923717 12.258417 444.268751)"/><path d="m132.333 118.508c-56.1361 17.162-87.8578 76.164-70.8529 131.785"/><path d="m140.351 199.307c-2.28-4.024-6.097-7.145-10.743-8.699-4.609-1.542-9.524-1.384-13.766.458-4.461 1.951-7.746 5.593-9.312 10.275-1.579 4.718-1.123 9.651 1.241 13.846 2.268 4.06 6.098 7.145 10.707 8.687 4.645 1.554 9.542 1.39 13.815-.483 4.443-1.957 7.758-5.628 9.324-10.31 1.591-4.634 1.123-9.531-1.266-13.774z" fill="#14ca89"/><path d="m127.491 196.96c-1.527-.511-3.109-.72-4.651-.629m-3.861.912c-2.759 1.207-4.79 3.458-5.758 6.353-.976 2.918-.694 5.968.768 8.562"/><path d="m246.563 234.846c-2.279-4.024-6.097-7.144-10.742-8.699-4.609-1.542-9.524-1.384-13.767.458-4.461 1.951-7.745 5.593-9.312 10.275-1.579 4.718-1.123 9.651 1.242 13.846 2.267 4.06 6.097 7.145 10.706 8.687 4.646 1.554 9.542 1.39 13.815-.483 4.443-1.957 7.758-5.628 9.325-10.31 1.59-4.634 1.122-9.531-1.267-13.774z" fill="#14ca89"/><path d="m233.703 232.499c-1.527-.511-3.108-.72-4.651-.629m-3.861.912c-2.758 1.207-4.789 3.458-5.758 6.353-.976 2.918-.694 5.968.768 8.562"/><path d="m153.452 255.744c2.972 5.323 7.993 9.367 14.035 11.388 6.09 2.038 12.509 1.822 18.111-.632"/></g></svg>